<svg id="Layer_1" data-name="Layer 1" xmlns="http://www.w3.org/2000/svg" viewBox="0 0 544.56 264.28"><defs><style>.cls-1{fill:#929195;}</style></defs><path class="cls-1" d="M117.14,512.32v-16.7a24.57,24.57,0,0,0,6,.67c7.35,0,10.85-3.51,10.85-11.19V395.44h18.37V484.6c0,19.2-8.68,28.38-26.71,28.38A44.14,44.14,0,0,1,117.14,512.32Z" transform="translate(-117.14 -395.44)"/><path class="cls-1" d="M189.75,395.44h18.36V512.32H189.75Z" transform="translate(-117.14 -395.44)"/><path class="cls-1" d="M260.19,395.44h24.88l19,116.88H285.74l-3.34-23.21v.33H261.53l-3.34,22.88h-17Zm20,78.14-8.18-57.77h-.34l-8,57.77Z" transform="translate(-117.14 -395.44)"/><path class="cls-1" d="M367.08,630.34v-6.68h17.36v8c0,8.35,3.67,11.36,9.51,11.36s9.52-3,9.52-11.69c0-9.68-3.67-15.86-15.69-26.38-15.36-13.52-20.37-23-20.37-36.4,0-18.36,9.52-29,27.38-29s26.72,10.69,26.72,29.39v4.84H404.14v-6c0-8.35-3.34-11.52-9.19-11.52s-9.18,3.17-9.18,11.18c0,8.52,3.84,14.7,15.87,25.22,15.36,13.52,20.2,22.87,20.2,37.4,0,19-9.69,29.72-27.72,29.72S367.08,649,367.08,630.34Z" transform="translate(-117.14 -395.44)"/><path class="cls-1" d="M456.54,541.18h18.37V658.05H456.54Z" transform="translate(-117.14 -395.44)"/><path class="cls-1" d="M512.8,541.18h23l17.87,70H554v-70H570.4V658.05H551.53l-22-85.31h-.33v85.31H512.8Z" transform="translate(-117.14 -395.44)"/><path class="cls-1" d="M606.94,630.34V568.9c0-18.7,9.34-29.39,27.38-29.39S661.7,550.2,661.7,568.9v10H644.34V567.73c0-8.35-3.68-11.52-9.53-11.52s-9.51,3.17-9.51,11.52v63.94C625.3,640,629,643,634.81,643s9.53-3,9.53-11.36V608.8h-9.19V592.1H661.7v38.24c0,18.7-9.35,29.39-27.38,29.39S606.94,649,606.94,630.34Z" transform="translate(-117.14 -395.44)"/></svg>