<svg id="Layer_1" data-name="Layer 1" xmlns="http://www.w3.org/2000/svg" viewBox="0 0 1332.45 719.35"><defs><style>.cls-1{fill:#f3de4c;}</style></defs><path class="cls-1" d="M823.8,182.41a5.8,5.8,0,0,0-1.45-3.91,4.48,4.48,0,0,0-3.36-1.56v-2.4h0c2.65,0,4.81-2.45,4.81-5.47h2.4c0,3,2.16,5.47,4.81,5.47h0v2.4h0a4.5,4.5,0,0,0-3.36,1.56,5.85,5.85,0,0,0-1.45,3.91Z" transform="translate(-15.25 -17.78)"/><path class="cls-1" d="M881.21,182.41a5.8,5.8,0,0,0-1.45-3.91,4.48,4.48,0,0,0-3.36-1.56v-2.4h0c2.65,0,4.81-2.45,4.81-5.47h2.4c0,3,2.16,5.47,4.81,5.47h0v2.4h0a4.5,4.5,0,0,0-3.36,1.56,5.85,5.85,0,0,0-1.45,3.91Z" transform="translate(-15.25 -17.78)"/><path class="cls-1" d="M938.62,182.41a5.8,5.8,0,0,0-1.45-3.91,4.5,4.5,0,0,0-3.36-1.56v-2.4h0c2.65,0,4.81-2.45,4.81-5.47H941c0,3,2.16,5.47,4.81,5.47h0v2.4h0a4.5,4.5,0,0,0-3.36,1.56,5.8,5.8,0,0,0-1.45,3.91Z" transform="translate(-15.25 -17.78)"/><path class="cls-1" d="M996,182.41a5.8,5.8,0,0,0-1.45-3.91,4.5,4.5,0,0,0-3.36-1.56v-2.4h0c2.65,0,4.81-2.45,4.81-5.47h2.4c0,3,2.16,5.47,4.81,5.47h0v2.4h0a4.5,4.5,0,0,0-3.36,1.56,5.8,5.8,0,0,0-1.45,3.91Z" transform="translate(-15.25 -17.78)"/><path class="cls-1" d="M1053.44,182.41a5.8,5.8,0,0,0-1.45-3.91,4.5,4.5,0,0,0-3.36-1.56v-2.4h0c2.65,0,4.81-2.45,4.81-5.47h2.4c0,3,2.16,5.47,4.81,5.47h0v2.4h0a4.5,4.5,0,0,0-3.36,1.56,5.8,5.8,0,0,0-1.45,3.91Z" transform="translate(-15.25 -17.78)"/><path class="cls-1" d="M1110.85,182.41a5.8,5.8,0,0,0-1.45-3.91,4.5,4.5,0,0,0-3.36-1.56v-2.4h0c2.65,0,4.81-2.45,4.81-5.47h2.4c0,3,2.16,5.47,4.81,5.47h0v2.4h0a4.5,4.5,0,0,0-3.36,1.56,5.8,5.8,0,0,0-1.45,3.91Z" transform="translate(-15.25 -17.78)"/><path class="cls-1" d="M1168.26,182.41a5.8,5.8,0,0,0-1.45-3.91,4.5,4.5,0,0,0-3.36-1.56v-2.4h0c2.65,0,4.81-2.45,4.81-5.47h2.4c0,3,2.16,5.47,4.81,5.47h0v2.4h0a4.5,4.5,0,0,0-3.36,1.56,5.8,5.8,0,0,0-1.45,3.91Z" transform="translate(-15.25 -17.78)"/><path class="cls-1" d="M1225.67,182.41a5.8,5.8,0,0,0-1.45-3.91,4.5,4.5,0,0,0-3.36-1.56v-2.4h0c2.65,0,4.81-2.45,4.81-5.47h2.4c0,3,2.16,5.47,4.81,5.47h0v2.4h0a4.5,4.5,0,0,0-3.36,1.56,5.8,5.8,0,0,0-1.45,3.91Z" transform="translate(-15.25 -17.78)"/><path class="cls-1" d="M1283.08,182.41a5.8,5.8,0,0,0-1.45-3.91,4.5,4.5,0,0,0-3.36-1.56v-2.4h0c2.65,0,4.81-2.45,4.81-5.47h2.4c0,3,2.16,5.47,4.81,5.47h0v2.4h0a4.5,4.5,0,0,0-3.36,1.56,5.8,5.8,0,0,0-1.45,3.91Z" transform="translate(-15.25 -17.78)"/><path class="cls-1" d="M1340.49,182.41a5.8,5.8,0,0,0-1.45-3.91,4.5,4.5,0,0,0-3.36-1.56v-2.4h0c2.65,0,4.81-2.45,4.81-5.47h2.4c0,3,2.16,5.47,4.81,5.47h0v2.4h0a4.48,4.48,0,0,0-3.36,1.56,5.8,5.8,0,0,0-1.45,3.91Z" transform="translate(-15.25 -17.78)"/><path class="cls-1" d="M364.53,182.41a5.81,5.81,0,0,0-1.46-3.91,4.48,4.48,0,0,0-3.36-1.56v-2.4h0c2.66,0,4.82-2.45,4.82-5.47h2.39c0,3,2.16,5.47,4.81,5.47h0v2.4h0a4.5,4.5,0,0,0-3.36,1.56,5.85,5.85,0,0,0-1.45,3.91Z" transform="translate(-15.25 -17.78)"/><path class="cls-1" d="M421.94,182.41a5.81,5.81,0,0,0-1.46-3.91,4.48,4.48,0,0,0-3.36-1.56v-2.4h0c2.66,0,4.82-2.45,4.82-5.47h2.39c0,3,2.16,5.47,4.81,5.47h0v2.4h0a4.5,4.5,0,0,0-3.36,1.56,5.85,5.85,0,0,0-1.45,3.91Z" transform="translate(-15.25 -17.78)"/><path class="cls-1" d="M479.35,182.41a5.81,5.81,0,0,0-1.46-3.91,4.48,4.48,0,0,0-3.36-1.56v-2.4h0c2.66,0,4.81-2.45,4.82-5.47h2.39c0,3,2.16,5.47,4.81,5.47h0v2.4h0a4.5,4.5,0,0,0-3.36,1.56,5.85,5.85,0,0,0-1.45,3.91Z" transform="translate(-15.25 -17.78)"/><path class="cls-1" d="M536.75,182.41a5.8,5.8,0,0,0-1.45-3.91,4.48,4.48,0,0,0-3.36-1.56v-2.4h0c2.66,0,4.81-2.45,4.81-5.47h2.4c0,3,2.16,5.47,4.81,5.47h0v2.4h0a4.5,4.5,0,0,0-3.36,1.56,5.85,5.85,0,0,0-1.45,3.91Z" transform="translate(-15.25 -17.78)"/><path class="cls-1" d="M20.07,182.41a5.81,5.81,0,0,0-1.46-3.91,4.47,4.47,0,0,0-3.36-1.56v-2.4h0c2.66,0,4.82-2.45,4.82-5.47h2.39c0,3,2.16,5.47,4.82,5.47h0v2.4h0a4.47,4.47,0,0,0-3.36,1.56,5.81,5.81,0,0,0-1.46,3.91Z" transform="translate(-15.25 -17.78)"/><path class="cls-1" d="M77.48,182.41A5.81,5.81,0,0,0,76,178.5a4.47,4.47,0,0,0-3.36-1.56v-2.4h0c2.66,0,4.82-2.45,4.82-5.47h2.39c0,3,2.16,5.47,4.82,5.47h0v2.4h0a4.47,4.47,0,0,0-3.36,1.56,5.81,5.81,0,0,0-1.46,3.91Z" transform="translate(-15.25 -17.78)"/><path class="cls-1" d="M134.89,182.41a5.81,5.81,0,0,0-1.46-3.91,4.47,4.47,0,0,0-3.36-1.56v-2.4h0c2.66,0,4.82-2.45,4.82-5.47h2.39c0,3,2.16,5.47,4.82,5.47h0v2.4h0a4.47,4.47,0,0,0-3.36,1.56,5.81,5.81,0,0,0-1.46,3.91Z" transform="translate(-15.25 -17.78)"/><path class="cls-1" d="M192.3,182.41a5.81,5.81,0,0,0-1.46-3.91,4.47,4.47,0,0,0-3.36-1.56v-2.4h0c2.66,0,4.82-2.45,4.82-5.47h2.39c0,3,2.16,5.47,4.82,5.47h0v2.4h0a4.46,4.46,0,0,0-3.35,1.56,5.81,5.81,0,0,0-1.46,3.91Z" transform="translate(-15.25 -17.78)"/><path class="cls-1" d="M249.71,182.41a5.81,5.81,0,0,0-1.46-3.91,4.48,4.48,0,0,0-3.36-1.56v-2.4h0c2.66,0,4.82-2.45,4.82-5.47h2.39c0,3,2.16,5.47,4.82,5.47h0v2.4h0a4.46,4.46,0,0,0-3.35,1.56,5.81,5.81,0,0,0-1.46,3.91Z" transform="translate(-15.25 -17.78)"/><path class="cls-1" d="M307.12,182.41a5.81,5.81,0,0,0-1.46-3.91,4.48,4.48,0,0,0-3.36-1.56v-2.4h0c2.66,0,4.82-2.45,4.82-5.47h2.39c0,3,2.16,5.47,4.81,5.47h0v2.4h0A4.5,4.5,0,0,0,311,178.5a5.85,5.85,0,0,0-1.45,3.91Z" transform="translate(-15.25 -17.78)"/><path class="cls-1" d="M823.8,232.84a5.8,5.8,0,0,0-1.45-3.92,4.51,4.51,0,0,0-3.36-1.55V225h0c2.65,0,4.81-2.46,4.81-5.47h2.4c0,3,2.16,5.47,4.81,5.47h0v2.4h0a4.52,4.52,0,0,0-3.36,1.55,5.85,5.85,0,0,0-1.45,3.92Z" transform="translate(-15.25 -17.78)"/><path class="cls-1" d="M881.21,232.84a5.8,5.8,0,0,0-1.45-3.92,4.51,4.51,0,0,0-3.36-1.55V225h0c2.65,0,4.81-2.46,4.81-5.47h2.4c0,3,2.16,5.47,4.81,5.47h0v2.4h0a4.52,4.52,0,0,0-3.36,1.55,5.85,5.85,0,0,0-1.45,3.92Z" transform="translate(-15.25 -17.78)"/><path class="cls-1" d="M938.62,232.84a5.8,5.8,0,0,0-1.45-3.92,4.52,4.52,0,0,0-3.36-1.55V225h0c2.65,0,4.81-2.46,4.81-5.47H941c0,3,2.16,5.47,4.81,5.47h0v2.4h0a4.52,4.52,0,0,0-3.36,1.55,5.8,5.8,0,0,0-1.45,3.92Z" transform="translate(-15.25 -17.78)"/><path class="cls-1" d="M996,232.84a5.8,5.8,0,0,0-1.45-3.92,4.52,4.52,0,0,0-3.36-1.55V225h0c2.65,0,4.81-2.46,4.81-5.47h2.4c0,3,2.16,5.47,4.81,5.47h0v2.4h0a4.52,4.52,0,0,0-3.36,1.55,5.8,5.8,0,0,0-1.45,3.92Z" transform="translate(-15.25 -17.78)"/><path class="cls-1" d="M1053.44,232.84a5.8,5.8,0,0,0-1.45-3.92,4.52,4.52,0,0,0-3.36-1.55V225h0c2.65,0,4.81-2.46,4.81-5.47h2.4c0,3,2.16,5.47,4.81,5.47h0v2.4h0a4.52,4.52,0,0,0-3.36,1.55,5.8,5.8,0,0,0-1.45,3.92Z" transform="translate(-15.25 -17.78)"/><path class="cls-1" d="M1110.85,232.84a5.8,5.8,0,0,0-1.45-3.92,4.52,4.52,0,0,0-3.36-1.55V225h0c2.65,0,4.81-2.46,4.81-5.47h2.4c0,3,2.16,5.47,4.81,5.47h0v2.4h0a4.52,4.52,0,0,0-3.36,1.55,5.8,5.8,0,0,0-1.45,3.92Z" transform="translate(-15.25 -17.78)"/><path class="cls-1" d="M1168.26,232.84a5.8,5.8,0,0,0-1.45-3.92,4.52,4.52,0,0,0-3.36-1.55V225h0c2.65,0,4.81-2.46,4.81-5.47h2.4c0,3,2.16,5.47,4.81,5.47h0v2.4h0a4.52,4.52,0,0,0-3.36,1.55,5.8,5.8,0,0,0-1.45,3.92Z" transform="translate(-15.25 -17.78)"/><path class="cls-1" d="M1225.67,232.84a5.8,5.8,0,0,0-1.45-3.92,4.52,4.52,0,0,0-3.36-1.55V225h0c2.65,0,4.81-2.46,4.81-5.47h2.4c0,3,2.16,5.47,4.81,5.47h0v2.4h0a4.52,4.52,0,0,0-3.36,1.55,5.8,5.8,0,0,0-1.45,3.92Z" transform="translate(-15.25 -17.78)"/><path class="cls-1" d="M1283.08,232.84a5.8,5.8,0,0,0-1.45-3.92,4.52,4.52,0,0,0-3.36-1.55V225h0c2.65,0,4.81-2.46,4.81-5.47h2.4c0,3,2.16,5.47,4.81,5.47h0v2.4h0a4.52,4.52,0,0,0-3.36,1.55,5.8,5.8,0,0,0-1.45,3.92Z" transform="translate(-15.25 -17.78)"/><path class="cls-1" d="M1340.49,232.84a5.8,5.8,0,0,0-1.45-3.92,4.52,4.52,0,0,0-3.36-1.55V225h0c2.65,0,4.81-2.46,4.81-5.47h2.4c0,3,2.16,5.47,4.81,5.47h0v2.4h0a4.51,4.51,0,0,0-3.36,1.55,5.8,5.8,0,0,0-1.45,3.92Z" transform="translate(-15.25 -17.78)"/><path class="cls-1" d="M364.53,232.84a5.81,5.81,0,0,0-1.46-3.92,4.51,4.51,0,0,0-3.36-1.55V225h0c2.66,0,4.82-2.46,4.82-5.47h2.39c0,3,2.16,5.47,4.81,5.47h0v2.4h0a4.52,4.52,0,0,0-3.36,1.55,5.85,5.85,0,0,0-1.45,3.92Z" transform="translate(-15.25 -17.78)"/><path class="cls-1" d="M421.94,232.84a5.81,5.81,0,0,0-1.46-3.92,4.51,4.51,0,0,0-3.36-1.55V225h0c2.66,0,4.82-2.46,4.82-5.47h2.39c0,3,2.16,5.47,4.81,5.47h0v2.4h0a4.52,4.52,0,0,0-3.36,1.55,5.85,5.85,0,0,0-1.45,3.92Z" transform="translate(-15.25 -17.78)"/><path class="cls-1" d="M479.35,232.84a5.81,5.81,0,0,0-1.46-3.92,4.51,4.51,0,0,0-3.36-1.55V225h0c2.66,0,4.81-2.46,4.82-5.47h2.39c0,3,2.16,5.47,4.81,5.47h0v2.4h0a4.52,4.52,0,0,0-3.36,1.55,5.85,5.85,0,0,0-1.45,3.92Z" transform="translate(-15.25 -17.78)"/><path class="cls-1" d="M536.75,232.84a5.8,5.8,0,0,0-1.45-3.92,4.51,4.51,0,0,0-3.36-1.55V225h0c2.66,0,4.81-2.46,4.81-5.47h2.4c0,3,2.16,5.47,4.81,5.47h0v2.4h0a4.52,4.52,0,0,0-3.36,1.55,5.85,5.85,0,0,0-1.45,3.92Z" transform="translate(-15.25 -17.78)"/><path class="cls-1" d="M20.07,232.84a5.81,5.81,0,0,0-1.46-3.92,4.49,4.49,0,0,0-3.36-1.55V225h0c2.66,0,4.82-2.46,4.82-5.47h2.39c0,3,2.16,5.47,4.82,5.47h0v2.4h0a4.49,4.49,0,0,0-3.36,1.55,5.81,5.81,0,0,0-1.46,3.92Z" transform="translate(-15.25 -17.78)"/><path class="cls-1" d="M77.48,232.84A5.81,5.81,0,0,0,76,228.92a4.49,4.49,0,0,0-3.36-1.55V225h0c2.66,0,4.82-2.46,4.82-5.47h2.39c0,3,2.16,5.47,4.82,5.47h0v2.4h0a4.49,4.49,0,0,0-3.36,1.55,5.81,5.81,0,0,0-1.46,3.92Z" transform="translate(-15.25 -17.78)"/><path class="cls-1" d="M134.89,232.84a5.81,5.81,0,0,0-1.46-3.92,4.49,4.49,0,0,0-3.36-1.55V225h0c2.66,0,4.82-2.46,4.82-5.47h2.39c0,3,2.16,5.47,4.82,5.47h0v2.4h0a4.49,4.49,0,0,0-3.36,1.55,5.81,5.81,0,0,0-1.46,3.92Z" transform="translate(-15.25 -17.78)"/><path class="cls-1" d="M192.3,232.84a5.81,5.81,0,0,0-1.46-3.92,4.49,4.49,0,0,0-3.36-1.55V225h0c2.66,0,4.82-2.46,4.82-5.47h2.39c0,3,2.16,5.47,4.82,5.47h0v2.4h0a4.49,4.49,0,0,0-3.35,1.55,5.81,5.81,0,0,0-1.46,3.92Z" transform="translate(-15.25 -17.78)"/><path class="cls-1" d="M249.71,232.84a5.81,5.81,0,0,0-1.46-3.92,4.51,4.51,0,0,0-3.36-1.55V225h0c2.66,0,4.82-2.46,4.82-5.47h2.39c0,3,2.16,5.47,4.82,5.47h0v2.4h0a4.49,4.49,0,0,0-3.35,1.55,5.81,5.81,0,0,0-1.46,3.92Z" transform="translate(-15.25 -17.78)"/><path class="cls-1" d="M307.12,232.84a5.81,5.81,0,0,0-1.46-3.92,4.51,4.51,0,0,0-3.36-1.55V225h0c2.66,0,4.82-2.46,4.82-5.47h2.39c0,3,2.16,5.47,4.81,5.47h0v2.4h0a4.52,4.52,0,0,0-3.36,1.55,5.85,5.85,0,0,0-1.45,3.92Z" transform="translate(-15.25 -17.78)"/><path class="cls-1" d="M938.62,81.55a5.8,5.8,0,0,0-1.45-3.91,4.5,4.5,0,0,0-3.36-1.56v-2.4h0c2.65,0,4.81-2.45,4.81-5.47H941c0,3,2.16,5.47,4.81,5.47h0v2.4h0a4.5,4.5,0,0,0-3.36,1.56A5.8,5.8,0,0,0,941,81.55Z" transform="translate(-15.25 -17.78)"/><path class="cls-1" d="M996,81.55a5.8,5.8,0,0,0-1.45-3.91,4.5,4.5,0,0,0-3.36-1.56v-2.4h0c2.65,0,4.81-2.45,4.81-5.47h2.4c0,3,2.16,5.47,4.81,5.47h0v2.4h0a4.5,4.5,0,0,0-3.36,1.56,5.8,5.8,0,0,0-1.45,3.91Z" transform="translate(-15.25 -17.78)"/><path class="cls-1" d="M1053.44,81.55a5.8,5.8,0,0,0-1.45-3.91,4.5,4.5,0,0,0-3.36-1.56v-2.4h0c2.65,0,4.81-2.45,4.81-5.47h2.4c0,3,2.16,5.47,4.81,5.47h0v2.4h0a4.5,4.5,0,0,0-3.36,1.56,5.8,5.8,0,0,0-1.45,3.91Z" transform="translate(-15.25 -17.78)"/><path class="cls-1" d="M1110.85,81.55a5.8,5.8,0,0,0-1.45-3.91,4.5,4.5,0,0,0-3.36-1.56v-2.4h0c2.65,0,4.81-2.45,4.81-5.47h2.4c0,3,2.16,5.47,4.81,5.47h0v2.4h0a4.5,4.5,0,0,0-3.36,1.56,5.8,5.8,0,0,0-1.45,3.91Z" transform="translate(-15.25 -17.78)"/><path class="cls-1" d="M1168.26,81.55a5.8,5.8,0,0,0-1.45-3.91,4.5,4.5,0,0,0-3.36-1.56v-2.4h0c2.65,0,4.81-2.45,4.81-5.47h2.4c0,3,2.16,5.47,4.81,5.47h0v2.4h0a4.5,4.5,0,0,0-3.36,1.56,5.8,5.8,0,0,0-1.45,3.91Z" transform="translate(-15.25 -17.78)"/><path class="cls-1" d="M1225.67,81.55a5.8,5.8,0,0,0-1.45-3.91,4.5,4.5,0,0,0-3.36-1.56v-2.4h0c2.65,0,4.81-2.45,4.81-5.47h2.4c0,3,2.16,5.47,4.81,5.47h0v2.4h0a4.5,4.5,0,0,0-3.36,1.56,5.8,5.8,0,0,0-1.45,3.91Z" transform="translate(-15.25 -17.78)"/><path class="cls-1" d="M1283.08,81.55a5.8,5.8,0,0,0-1.45-3.91,4.5,4.5,0,0,0-3.36-1.56v-2.4h0c2.65,0,4.81-2.45,4.81-5.47h2.4c0,3,2.16,5.47,4.81,5.47h0v2.4h0a4.5,4.5,0,0,0-3.36,1.56,5.8,5.8,0,0,0-1.45,3.91Z" transform="translate(-15.25 -17.78)"/><path class="cls-1" d="M1340.49,81.55a5.8,5.8,0,0,0-1.45-3.91,4.5,4.5,0,0,0-3.36-1.56v-2.4h0c2.65,0,4.81-2.45,4.81-5.47h2.4c0,3,2.16,5.47,4.81,5.47h0v2.4h0a4.48,4.48,0,0,0-3.36,1.56,5.8,5.8,0,0,0-1.45,3.91Z" transform="translate(-15.25 -17.78)"/><path class="cls-1" d="M364.53,81.55a5.81,5.81,0,0,0-1.46-3.91,4.48,4.48,0,0,0-3.36-1.56v-2.4h0c2.66,0,4.82-2.45,4.82-5.47h2.39c0,3,2.16,5.47,4.81,5.47h0v2.4h0a4.5,4.5,0,0,0-3.36,1.56,5.85,5.85,0,0,0-1.45,3.91Z" transform="translate(-15.25 -17.78)"/><path class="cls-1" d="M421.94,81.55a5.81,5.81,0,0,0-1.46-3.91,4.48,4.48,0,0,0-3.36-1.56v-2.4h0c2.66,0,4.82-2.45,4.82-5.47h2.39c0,3,2.16,5.47,4.81,5.47h0v2.4h0a4.5,4.5,0,0,0-3.36,1.56,5.85,5.85,0,0,0-1.45,3.91Z" transform="translate(-15.25 -17.78)"/><path class="cls-1" d="M20.07,81.55a5.81,5.81,0,0,0-1.46-3.91,4.47,4.47,0,0,0-3.36-1.56v-2.4h0c2.66,0,4.82-2.45,4.82-5.47h2.39c0,3,2.16,5.47,4.82,5.47h0v2.4h0a4.47,4.47,0,0,0-3.36,1.56,5.81,5.81,0,0,0-1.46,3.91Z" transform="translate(-15.25 -17.78)"/><path class="cls-1" d="M77.48,81.55A5.81,5.81,0,0,0,76,77.64a4.47,4.47,0,0,0-3.36-1.56v-2.4h0c2.66,0,4.82-2.45,4.82-5.47h2.39c0,3,2.16,5.47,4.82,5.47h0v2.4h0a4.47,4.47,0,0,0-3.36,1.56,5.81,5.81,0,0,0-1.46,3.91Z" transform="translate(-15.25 -17.78)"/><path class="cls-1" d="M134.89,81.55a5.81,5.81,0,0,0-1.46-3.91,4.47,4.47,0,0,0-3.36-1.56v-2.4h0c2.66,0,4.82-2.45,4.82-5.47h2.39c0,3,2.16,5.47,4.82,5.47h0v2.4h0a4.47,4.47,0,0,0-3.36,1.56,5.81,5.81,0,0,0-1.46,3.91Z" transform="translate(-15.25 -17.78)"/><path class="cls-1" d="M192.3,81.55a5.81,5.81,0,0,0-1.46-3.91,4.47,4.47,0,0,0-3.36-1.56v-2.4h0c2.66,0,4.82-2.45,4.82-5.47h2.39c0,3,2.16,5.47,4.82,5.47h0v2.4h0a4.46,4.46,0,0,0-3.35,1.56,5.81,5.81,0,0,0-1.46,3.91Z" transform="translate(-15.25 -17.78)"/><path class="cls-1" d="M249.71,81.55a5.81,5.81,0,0,0-1.46-3.91,4.48,4.48,0,0,0-3.36-1.56v-2.4h0c2.66,0,4.82-2.45,4.82-5.47h2.39c0,3,2.16,5.47,4.82,5.47h0v2.4h0a4.46,4.46,0,0,0-3.35,1.56,5.81,5.81,0,0,0-1.46,3.91Z" transform="translate(-15.25 -17.78)"/><path class="cls-1" d="M307.12,81.55a5.81,5.81,0,0,0-1.46-3.91,4.48,4.48,0,0,0-3.36-1.56v-2.4h0c2.66,0,4.82-2.45,4.82-5.47h2.39c0,3,2.16,5.47,4.81,5.47h0v2.4h0A4.5,4.5,0,0,0,311,77.64a5.85,5.85,0,0,0-1.45,3.91Z" transform="translate(-15.25 -17.78)"/><path class="cls-1" d="M709,31.13a5.8,5.8,0,0,0-1.45-3.92,4.52,4.52,0,0,0-3.36-1.56V23.26h0c2.65,0,4.81-2.46,4.81-5.48h2.4c0,3,2.16,5.48,4.81,5.48h0v2.39h0a4.53,4.53,0,0,0-3.36,1.56,5.85,5.85,0,0,0-1.45,3.92Z" transform="translate(-15.25 -17.78)"/><path class="cls-1" d="M766.39,31.13a5.8,5.8,0,0,0-1.45-3.92,4.52,4.52,0,0,0-3.36-1.56V23.26h0c2.65,0,4.81-2.46,4.81-5.48h2.4c0,3,2.16,5.48,4.81,5.48h0v2.39h0a4.53,4.53,0,0,0-3.36,1.56,5.85,5.85,0,0,0-1.45,3.92Z" transform="translate(-15.25 -17.78)"/><path class="cls-1" d="M823.8,31.13a5.8,5.8,0,0,0-1.45-3.92A4.52,4.52,0,0,0,819,25.65V23.26h0c2.65,0,4.81-2.46,4.81-5.48h2.4c0,3,2.16,5.48,4.81,5.48h0v2.39h0a4.53,4.53,0,0,0-3.36,1.56,5.85,5.85,0,0,0-1.45,3.92Z" transform="translate(-15.25 -17.78)"/><path class="cls-1" d="M881.21,31.13a5.8,5.8,0,0,0-1.45-3.92,4.52,4.52,0,0,0-3.36-1.56V23.26h0c2.65,0,4.81-2.46,4.81-5.48h2.4c0,3,2.16,5.48,4.81,5.48h0v2.39h0a4.53,4.53,0,0,0-3.36,1.56,5.85,5.85,0,0,0-1.45,3.92Z" transform="translate(-15.25 -17.78)"/><path class="cls-1" d="M938.62,31.13a5.8,5.8,0,0,0-1.45-3.92,4.53,4.53,0,0,0-3.36-1.56V23.26h0c2.65,0,4.81-2.46,4.81-5.48H941c0,3,2.16,5.48,4.81,5.48h0v2.39h0a4.53,4.53,0,0,0-3.36,1.56A5.8,5.8,0,0,0,941,31.13Z" transform="translate(-15.25 -17.78)"/><path class="cls-1" d="M996,31.13a5.8,5.8,0,0,0-1.45-3.92,4.53,4.53,0,0,0-3.36-1.56V23.26h0c2.65,0,4.81-2.46,4.81-5.48h2.4c0,3,2.16,5.48,4.81,5.48h0v2.39h0a4.53,4.53,0,0,0-3.36,1.56,5.8,5.8,0,0,0-1.45,3.92Z" transform="translate(-15.25 -17.78)"/><path class="cls-1" d="M1053.44,31.13a5.8,5.8,0,0,0-1.45-3.92,4.53,4.53,0,0,0-3.36-1.56V23.26h0c2.65,0,4.81-2.46,4.81-5.48h2.4c0,3,2.16,5.48,4.81,5.48h0v2.39h0a4.53,4.53,0,0,0-3.36,1.56,5.8,5.8,0,0,0-1.45,3.92Z" transform="translate(-15.25 -17.78)"/><path class="cls-1" d="M1110.85,31.13a5.8,5.8,0,0,0-1.45-3.92,4.53,4.53,0,0,0-3.36-1.56V23.26h0c2.65,0,4.81-2.46,4.81-5.48h2.4c0,3,2.16,5.48,4.81,5.48h0v2.39h0a4.53,4.53,0,0,0-3.36,1.56,5.8,5.8,0,0,0-1.45,3.92Z" transform="translate(-15.25 -17.78)"/><path class="cls-1" d="M1168.26,31.13a5.8,5.8,0,0,0-1.45-3.92,4.53,4.53,0,0,0-3.36-1.56V23.26h0c2.65,0,4.81-2.46,4.81-5.48h2.4c0,3,2.16,5.48,4.81,5.48h0v2.39h0a4.53,4.53,0,0,0-3.36,1.56,5.8,5.8,0,0,0-1.45,3.92Z" transform="translate(-15.25 -17.78)"/><path class="cls-1" d="M1225.67,31.13a5.8,5.8,0,0,0-1.45-3.92,4.53,4.53,0,0,0-3.36-1.56V23.26h0c2.65,0,4.81-2.46,4.81-5.48h2.4c0,3,2.16,5.48,4.81,5.48h0v2.39h0a4.53,4.53,0,0,0-3.36,1.56,5.8,5.8,0,0,0-1.45,3.92Z" transform="translate(-15.25 -17.78)"/><path class="cls-1" d="M1283.08,31.13a5.8,5.8,0,0,0-1.45-3.92,4.53,4.53,0,0,0-3.36-1.56V23.26h0c2.65,0,4.81-2.46,4.81-5.48h2.4c0,3,2.16,5.48,4.81,5.48h0v2.39h0a4.53,4.53,0,0,0-3.36,1.56,5.8,5.8,0,0,0-1.45,3.92Z" transform="translate(-15.25 -17.78)"/><path class="cls-1" d="M1340.49,31.13a5.8,5.8,0,0,0-1.45-3.92,4.53,4.53,0,0,0-3.36-1.56V23.26h0c2.65,0,4.81-2.46,4.81-5.48h2.4c0,3,2.16,5.48,4.81,5.48h0v2.39h0a4.52,4.52,0,0,0-3.36,1.56,5.8,5.8,0,0,0-1.45,3.92Z" transform="translate(-15.25 -17.78)"/><path class="cls-1" d="M364.53,31.13a5.81,5.81,0,0,0-1.46-3.92,4.52,4.52,0,0,0-3.36-1.56V23.26h0c2.66,0,4.82-2.46,4.82-5.48h2.39c0,3,2.16,5.48,4.81,5.48h0v2.39h0a4.53,4.53,0,0,0-3.36,1.56,5.85,5.85,0,0,0-1.45,3.92Z" transform="translate(-15.25 -17.78)"/><path class="cls-1" d="M421.94,31.13a5.81,5.81,0,0,0-1.46-3.92,4.52,4.52,0,0,0-3.36-1.56V23.26h0c2.66,0,4.82-2.46,4.82-5.48h2.39c0,3,2.16,5.48,4.81,5.48h0v2.39h0a4.53,4.53,0,0,0-3.36,1.56,5.85,5.85,0,0,0-1.45,3.92Z" transform="translate(-15.25 -17.78)"/><path class="cls-1" d="M479.35,31.13a5.81,5.81,0,0,0-1.46-3.92,4.52,4.52,0,0,0-3.36-1.56V23.26h0c2.66,0,4.81-2.46,4.82-5.48h2.39c0,3,2.16,5.48,4.81,5.48h0v2.39h0a4.53,4.53,0,0,0-3.36,1.56,5.85,5.85,0,0,0-1.45,3.92Z" transform="translate(-15.25 -17.78)"/><path class="cls-1" d="M536.75,31.13a5.8,5.8,0,0,0-1.45-3.92,4.52,4.52,0,0,0-3.36-1.56V23.26h0c2.66,0,4.81-2.46,4.81-5.48h2.4c0,3,2.16,5.48,4.81,5.48h0v2.39h0a4.53,4.53,0,0,0-3.36,1.56,5.85,5.85,0,0,0-1.45,3.92Z" transform="translate(-15.25 -17.78)"/><path class="cls-1" d="M594.16,31.13a5.8,5.8,0,0,0-1.45-3.92,4.52,4.52,0,0,0-3.36-1.56V23.26h0c2.66,0,4.81-2.46,4.81-5.48h2.4c0,3,2.16,5.48,4.81,5.48h0v2.39h0A4.53,4.53,0,0,0,598,27.21a5.85,5.85,0,0,0-1.45,3.92Z" transform="translate(-15.25 -17.78)"/><path class="cls-1" d="M651.57,31.13a5.8,5.8,0,0,0-1.45-3.92,4.52,4.52,0,0,0-3.36-1.56V23.26h0c2.66,0,4.81-2.46,4.81-5.48H654c0,3,2.16,5.48,4.81,5.48h0v2.39h0a4.53,4.53,0,0,0-3.36,1.56A5.85,5.85,0,0,0,654,31.13Z" transform="translate(-15.25 -17.78)"/><path class="cls-1" d="M20.07,31.13a5.81,5.81,0,0,0-1.46-3.92,4.5,4.5,0,0,0-3.36-1.56V23.26h0c2.66,0,4.82-2.46,4.82-5.48h2.39c0,3,2.16,5.48,4.82,5.48h0v2.39h0a4.5,4.5,0,0,0-3.36,1.56,5.81,5.81,0,0,0-1.46,3.92Z" transform="translate(-15.25 -17.78)"/><path class="cls-1" d="M77.48,31.13A5.81,5.81,0,0,0,76,27.21a4.5,4.5,0,0,0-3.36-1.56V23.26h0c2.66,0,4.82-2.46,4.82-5.48h2.39c0,3,2.16,5.48,4.82,5.48h0v2.39h0a4.5,4.5,0,0,0-3.36,1.56,5.81,5.81,0,0,0-1.46,3.92Z" transform="translate(-15.25 -17.78)"/><path class="cls-1" d="M134.89,31.13a5.81,5.81,0,0,0-1.46-3.92,4.5,4.5,0,0,0-3.36-1.56V23.26h0c2.66,0,4.82-2.46,4.82-5.48h2.39c0,3,2.16,5.48,4.82,5.48h0v2.39h0a4.5,4.5,0,0,0-3.36,1.56,5.81,5.81,0,0,0-1.46,3.92Z" transform="translate(-15.25 -17.78)"/><path class="cls-1" d="M192.3,31.13a5.81,5.81,0,0,0-1.46-3.92,4.5,4.5,0,0,0-3.36-1.56V23.26h0c2.66,0,4.82-2.46,4.82-5.48h2.39c0,3,2.16,5.48,4.82,5.48h0v2.39h0a4.5,4.5,0,0,0-3.35,1.56,5.81,5.81,0,0,0-1.46,3.92Z" transform="translate(-15.25 -17.78)"/><path class="cls-1" d="M249.71,31.13a5.81,5.81,0,0,0-1.46-3.92,4.52,4.52,0,0,0-3.36-1.56V23.26h0c2.66,0,4.82-2.46,4.82-5.48h2.39c0,3,2.16,5.48,4.82,5.48h0v2.39h0a4.5,4.5,0,0,0-3.35,1.56,5.81,5.81,0,0,0-1.46,3.92Z" transform="translate(-15.25 -17.78)"/><path class="cls-1" d="M307.12,31.13a5.81,5.81,0,0,0-1.46-3.92,4.52,4.52,0,0,0-3.36-1.56V23.26h0c2.66,0,4.82-2.46,4.82-5.48h2.39c0,3,2.16,5.48,4.81,5.48h0v2.39h0A4.53,4.53,0,0,0,311,27.21a5.85,5.85,0,0,0-1.45,3.92Z" transform="translate(-15.25 -17.78)"/><path class="cls-1" d="M709,132a5.8,5.8,0,0,0-1.45-3.91,4.48,4.48,0,0,0-3.36-1.56v-2.4h0c2.65,0,4.81-2.45,4.81-5.47h2.4c0,3,2.16,5.47,4.81,5.47h0v2.4h0a4.5,4.5,0,0,0-3.36,1.56,5.85,5.85,0,0,0-1.45,3.91Z" transform="translate(-15.25 -17.78)"/><path class="cls-1" d="M766.39,132a5.8,5.8,0,0,0-1.45-3.91,4.48,4.48,0,0,0-3.36-1.56v-2.4h0c2.65,0,4.81-2.45,4.81-5.47h2.4c0,3,2.16,5.47,4.81,5.47h0v2.4h0a4.5,4.5,0,0,0-3.36,1.56,5.85,5.85,0,0,0-1.45,3.91Z" transform="translate(-15.25 -17.78)"/><path class="cls-1" d="M823.8,132a5.8,5.8,0,0,0-1.45-3.91,4.48,4.48,0,0,0-3.36-1.56v-2.4h0c2.65,0,4.81-2.45,4.81-5.47h2.4c0,3,2.16,5.47,4.81,5.47h0v2.4h0a4.5,4.5,0,0,0-3.36,1.56A5.85,5.85,0,0,0,826.2,132Z" transform="translate(-15.25 -17.78)"/><path class="cls-1" d="M881.21,132a5.8,5.8,0,0,0-1.45-3.91,4.48,4.48,0,0,0-3.36-1.56v-2.4h0c2.65,0,4.81-2.45,4.81-5.47h2.4c0,3,2.16,5.47,4.81,5.47h0v2.4h0a4.5,4.5,0,0,0-3.36,1.56,5.85,5.85,0,0,0-1.45,3.91Z" transform="translate(-15.25 -17.78)"/><path class="cls-1" d="M938.62,132a5.8,5.8,0,0,0-1.45-3.91,4.5,4.5,0,0,0-3.36-1.56v-2.4h0c2.65,0,4.81-2.45,4.81-5.47H941c0,3,2.16,5.47,4.81,5.47h0v2.4h0a4.5,4.5,0,0,0-3.36,1.56A5.8,5.8,0,0,0,941,132Z" transform="translate(-15.25 -17.78)"/><path class="cls-1" d="M996,132a5.8,5.8,0,0,0-1.45-3.91,4.5,4.5,0,0,0-3.36-1.56v-2.4h0c2.65,0,4.81-2.45,4.81-5.47h2.4c0,3,2.16,5.47,4.81,5.47h0v2.4h0a4.5,4.5,0,0,0-3.36,1.56,5.8,5.8,0,0,0-1.45,3.91Z" transform="translate(-15.25 -17.78)"/><path class="cls-1" d="M1053.44,132a5.8,5.8,0,0,0-1.45-3.91,4.5,4.5,0,0,0-3.36-1.56v-2.4h0c2.65,0,4.81-2.45,4.81-5.47h2.4c0,3,2.16,5.47,4.81,5.47h0v2.4h0a4.5,4.5,0,0,0-3.36,1.56,5.8,5.8,0,0,0-1.45,3.91Z" transform="translate(-15.25 -17.78)"/><path class="cls-1" d="M1110.85,132a5.8,5.8,0,0,0-1.45-3.91,4.5,4.5,0,0,0-3.36-1.56v-2.4h0c2.65,0,4.81-2.45,4.81-5.47h2.4c0,3,2.16,5.47,4.81,5.47h0v2.4h0a4.5,4.5,0,0,0-3.36,1.56,5.8,5.8,0,0,0-1.45,3.91Z" transform="translate(-15.25 -17.78)"/><path class="cls-1" d="M1168.26,132a5.8,5.8,0,0,0-1.45-3.91,4.5,4.5,0,0,0-3.36-1.56v-2.4h0c2.65,0,4.81-2.45,4.81-5.47h2.4c0,3,2.16,5.47,4.81,5.47h0v2.4h0a4.5,4.5,0,0,0-3.36,1.56,5.8,5.8,0,0,0-1.45,3.91Z" transform="translate(-15.25 -17.78)"/><path class="cls-1" d="M1225.67,132a5.8,5.8,0,0,0-1.45-3.91,4.5,4.5,0,0,0-3.36-1.56v-2.4h0c2.65,0,4.81-2.45,4.81-5.47h2.4c0,3,2.16,5.47,4.81,5.47h0v2.4h0a4.5,4.5,0,0,0-3.36,1.56,5.8,5.8,0,0,0-1.45,3.91Z" transform="translate(-15.25 -17.78)"/><path class="cls-1" d="M1283.08,132a5.8,5.8,0,0,0-1.45-3.91,4.5,4.5,0,0,0-3.36-1.56v-2.4h0c2.65,0,4.81-2.45,4.81-5.47h2.4c0,3,2.16,5.47,4.81,5.47h0v2.4h0a4.5,4.5,0,0,0-3.36,1.56,5.8,5.8,0,0,0-1.45,3.91Z" transform="translate(-15.25 -17.78)"/><path class="cls-1" d="M1340.49,132a5.8,5.8,0,0,0-1.45-3.91,4.5,4.5,0,0,0-3.36-1.56v-2.4h0c2.65,0,4.81-2.45,4.81-5.47h2.4c0,3,2.16,5.47,4.81,5.47h0v2.4h0a4.48,4.48,0,0,0-3.36,1.56,5.8,5.8,0,0,0-1.45,3.91Z" transform="translate(-15.25 -17.78)"/><path class="cls-1" d="M364.53,132a5.81,5.81,0,0,0-1.46-3.91,4.48,4.48,0,0,0-3.36-1.56v-2.4h0c2.66,0,4.82-2.45,4.82-5.47h2.39c0,3,2.16,5.47,4.81,5.47h0v2.4h0a4.5,4.5,0,0,0-3.36,1.56,5.85,5.85,0,0,0-1.45,3.91Z" transform="translate(-15.25 -17.78)"/><path class="cls-1" d="M421.94,132a5.81,5.81,0,0,0-1.46-3.91,4.48,4.48,0,0,0-3.36-1.56v-2.4h0c2.66,0,4.82-2.45,4.82-5.47h2.39c0,3,2.16,5.47,4.81,5.47h0v2.4h0a4.5,4.5,0,0,0-3.36,1.56,5.85,5.85,0,0,0-1.45,3.91Z" transform="translate(-15.25 -17.78)"/><path class="cls-1" d="M479.35,132a5.81,5.81,0,0,0-1.46-3.91,4.48,4.48,0,0,0-3.36-1.56v-2.4h0c2.66,0,4.81-2.45,4.82-5.47h2.39c0,3,2.16,5.47,4.81,5.47h0v2.4h0a4.5,4.5,0,0,0-3.36,1.56,5.85,5.85,0,0,0-1.45,3.91Z" transform="translate(-15.25 -17.78)"/><path class="cls-1" d="M536.75,132a5.8,5.8,0,0,0-1.45-3.91,4.48,4.48,0,0,0-3.36-1.56v-2.4h0c2.66,0,4.81-2.45,4.81-5.47h2.4c0,3,2.16,5.47,4.81,5.47h0v2.4h0a4.5,4.5,0,0,0-3.36,1.56,5.85,5.85,0,0,0-1.45,3.91Z" transform="translate(-15.25 -17.78)"/><path class="cls-1" d="M594.16,132a5.8,5.8,0,0,0-1.45-3.91,4.48,4.48,0,0,0-3.36-1.56v-2.4h0c2.66,0,4.81-2.45,4.81-5.47h2.4c0,3,2.16,5.47,4.81,5.47h0v2.4h0a4.5,4.5,0,0,0-3.36,1.56,5.85,5.85,0,0,0-1.45,3.91Z" transform="translate(-15.25 -17.78)"/><path class="cls-1" d="M651.57,132a5.8,5.8,0,0,0-1.45-3.91,4.48,4.48,0,0,0-3.36-1.56v-2.4h0c2.66,0,4.81-2.45,4.81-5.47H654c0,3,2.16,5.47,4.81,5.47h0v2.4h0a4.5,4.5,0,0,0-3.36,1.56A5.85,5.85,0,0,0,654,132Z" transform="translate(-15.25 -17.78)"/><path class="cls-1" d="M20.07,132a5.81,5.81,0,0,0-1.46-3.91,4.47,4.47,0,0,0-3.36-1.56v-2.4h0c2.66,0,4.82-2.45,4.82-5.47h2.39c0,3,2.16,5.47,4.82,5.47h0v2.4h0a4.47,4.47,0,0,0-3.36,1.56A5.81,5.81,0,0,0,22.46,132Z" transform="translate(-15.25 -17.78)"/><path class="cls-1" d="M77.48,132A5.81,5.81,0,0,0,76,128.07a4.47,4.47,0,0,0-3.36-1.56v-2.4h0c2.66,0,4.82-2.45,4.82-5.47h2.39c0,3,2.16,5.47,4.82,5.47h0v2.4h0a4.47,4.47,0,0,0-3.36,1.56A5.81,5.81,0,0,0,79.87,132Z" transform="translate(-15.25 -17.78)"/><path class="cls-1" d="M134.89,132a5.81,5.81,0,0,0-1.46-3.91,4.47,4.47,0,0,0-3.36-1.56v-2.4h0c2.66,0,4.82-2.45,4.82-5.47h2.39c0,3,2.16,5.47,4.82,5.47h0v2.4h0a4.47,4.47,0,0,0-3.36,1.56,5.81,5.81,0,0,0-1.46,3.91Z" transform="translate(-15.25 -17.78)"/><path class="cls-1" d="M192.3,132a5.81,5.81,0,0,0-1.46-3.91,4.47,4.47,0,0,0-3.36-1.56v-2.4h0c2.66,0,4.82-2.45,4.82-5.47h2.39c0,3,2.16,5.47,4.82,5.47h0v2.4h0a4.46,4.46,0,0,0-3.35,1.56,5.81,5.81,0,0,0-1.46,3.91Z" transform="translate(-15.25 -17.78)"/><path class="cls-1" d="M249.71,132a5.81,5.81,0,0,0-1.46-3.91,4.48,4.48,0,0,0-3.36-1.56v-2.4h0c2.66,0,4.82-2.45,4.82-5.47h2.39c0,3,2.16,5.47,4.82,5.47h0v2.4h0a4.46,4.46,0,0,0-3.35,1.56A5.81,5.81,0,0,0,252.1,132Z" transform="translate(-15.25 -17.78)"/><path class="cls-1" d="M307.12,132a5.81,5.81,0,0,0-1.46-3.91,4.48,4.48,0,0,0-3.36-1.56v-2.4h0c2.66,0,4.82-2.45,4.82-5.47h2.39c0,3,2.16,5.47,4.81,5.47h0v2.4h0a4.5,4.5,0,0,0-3.36,1.56,5.85,5.85,0,0,0-1.45,3.91Z" transform="translate(-15.25 -17.78)"/><path class="cls-1" d="M823.8,283.27a5.8,5.8,0,0,0-1.45-3.92,4.52,4.52,0,0,0-3.36-1.56V275.4h0c2.65,0,4.81-2.46,4.81-5.47h2.4c0,3,2.16,5.48,4.81,5.48h0v2.39h0a4.53,4.53,0,0,0-3.36,1.56,5.85,5.85,0,0,0-1.45,3.92Z" transform="translate(-15.25 -17.78)"/><path class="cls-1" d="M881.21,283.27a5.8,5.8,0,0,0-1.45-3.92,4.52,4.52,0,0,0-3.36-1.56V275.4h0c2.65,0,4.81-2.46,4.81-5.47h2.4c0,3,2.16,5.48,4.81,5.48h0v2.39h0a4.53,4.53,0,0,0-3.36,1.56,5.85,5.85,0,0,0-1.45,3.92Z" transform="translate(-15.25 -17.78)"/><path class="cls-1" d="M938.62,283.27a5.8,5.8,0,0,0-1.45-3.92,4.53,4.53,0,0,0-3.36-1.56V275.4h0c2.65,0,4.81-2.46,4.81-5.47H941c0,3,2.16,5.48,4.81,5.48h0v2.39h0a4.53,4.53,0,0,0-3.36,1.56,5.8,5.8,0,0,0-1.45,3.92Z" transform="translate(-15.25 -17.78)"/><path class="cls-1" d="M996,283.27a5.8,5.8,0,0,0-1.45-3.92,4.53,4.53,0,0,0-3.36-1.56V275.4h0c2.65,0,4.81-2.46,4.81-5.47h2.4c0,3,2.16,5.48,4.81,5.48h0v2.39h0a4.53,4.53,0,0,0-3.36,1.56,5.8,5.8,0,0,0-1.45,3.92Z" transform="translate(-15.25 -17.78)"/><path class="cls-1" d="M1053.44,283.27a5.8,5.8,0,0,0-1.45-3.92,4.53,4.53,0,0,0-3.36-1.56V275.4h0c2.65,0,4.81-2.46,4.81-5.47h2.4c0,3,2.16,5.48,4.81,5.48h0v2.39h0a4.53,4.53,0,0,0-3.36,1.56,5.8,5.8,0,0,0-1.45,3.92Z" transform="translate(-15.25 -17.78)"/><path class="cls-1" d="M1110.85,283.27a5.8,5.8,0,0,0-1.45-3.92,4.53,4.53,0,0,0-3.36-1.56V275.4h0c2.65,0,4.81-2.46,4.81-5.47h2.4c0,3,2.16,5.48,4.81,5.48h0v2.39h0a4.53,4.53,0,0,0-3.36,1.56,5.8,5.8,0,0,0-1.45,3.92Z" transform="translate(-15.25 -17.78)"/><path class="cls-1" d="M1168.26,283.27a5.8,5.8,0,0,0-1.45-3.92,4.53,4.53,0,0,0-3.36-1.56V275.4h0c2.65,0,4.81-2.46,4.81-5.47h2.4c0,3,2.16,5.48,4.81,5.48h0v2.39h0a4.53,4.53,0,0,0-3.36,1.56,5.8,5.8,0,0,0-1.45,3.92Z" transform="translate(-15.25 -17.78)"/><path class="cls-1" d="M1225.67,283.27a5.8,5.8,0,0,0-1.45-3.92,4.53,4.53,0,0,0-3.36-1.56V275.4h0c2.65,0,4.81-2.46,4.81-5.47h2.4c0,3,2.16,5.48,4.81,5.48h0v2.39h0a4.53,4.53,0,0,0-3.36,1.56,5.8,5.8,0,0,0-1.45,3.92Z" transform="translate(-15.25 -17.78)"/><path class="cls-1" d="M1283.08,283.27a5.8,5.8,0,0,0-1.45-3.92,4.53,4.53,0,0,0-3.36-1.56V275.4h0c2.65,0,4.81-2.46,4.81-5.47h2.4c0,3,2.16,5.48,4.81,5.48h0v2.39h0a4.53,4.53,0,0,0-3.36,1.56,5.8,5.8,0,0,0-1.45,3.92Z" transform="translate(-15.25 -17.78)"/><path class="cls-1" d="M1340.49,283.27a5.8,5.8,0,0,0-1.45-3.92,4.53,4.53,0,0,0-3.36-1.56V275.4h0c2.65,0,4.81-2.46,4.81-5.47h2.4c0,3,2.16,5.48,4.81,5.48h0v2.39h0a4.52,4.52,0,0,0-3.36,1.56,5.8,5.8,0,0,0-1.45,3.92Z" transform="translate(-15.25 -17.78)"/><path class="cls-1" d="M364.53,283.27a5.81,5.81,0,0,0-1.46-3.92,4.52,4.52,0,0,0-3.36-1.56V275.4h0c2.66,0,4.82-2.46,4.82-5.47h2.39c0,3,2.16,5.48,4.81,5.48h0v2.39h0a4.53,4.53,0,0,0-3.36,1.56,5.85,5.85,0,0,0-1.45,3.92Z" transform="translate(-15.25 -17.78)"/><path class="cls-1" d="M421.94,283.27a5.81,5.81,0,0,0-1.46-3.92,4.52,4.52,0,0,0-3.36-1.56V275.4h0c2.66,0,4.82-2.46,4.82-5.47h2.39c0,3,2.16,5.48,4.81,5.48h0v2.39h0a4.53,4.53,0,0,0-3.36,1.56,5.85,5.85,0,0,0-1.45,3.92Z" transform="translate(-15.25 -17.78)"/><path class="cls-1" d="M479.35,283.27a5.81,5.81,0,0,0-1.46-3.92,4.52,4.52,0,0,0-3.36-1.56V275.4h0c2.66,0,4.81-2.46,4.82-5.47h2.39c0,3,2.16,5.48,4.81,5.48h0v2.39h0a4.53,4.53,0,0,0-3.36,1.56,5.85,5.85,0,0,0-1.45,3.92Z" transform="translate(-15.25 -17.78)"/><path class="cls-1" d="M536.75,283.27a5.8,5.8,0,0,0-1.45-3.92,4.52,4.52,0,0,0-3.36-1.56V275.4h0c2.66,0,4.81-2.46,4.81-5.47h2.4c0,3,2.16,5.48,4.81,5.48h0v2.39h0a4.53,4.53,0,0,0-3.36,1.56,5.85,5.85,0,0,0-1.45,3.92Z" transform="translate(-15.25 -17.78)"/><path class="cls-1" d="M20.07,283.27a5.81,5.81,0,0,0-1.46-3.92,4.5,4.5,0,0,0-3.36-1.56V275.4h0c2.66,0,4.82-2.46,4.82-5.47h2.39c0,3,2.16,5.48,4.82,5.48h0v2.39h0a4.5,4.5,0,0,0-3.36,1.56,5.81,5.81,0,0,0-1.46,3.92Z" transform="translate(-15.25 -17.78)"/><path class="cls-1" d="M77.48,283.27A5.81,5.81,0,0,0,76,279.35a4.5,4.5,0,0,0-3.36-1.56V275.4h0c2.66,0,4.82-2.46,4.82-5.47h2.39c0,3,2.16,5.48,4.82,5.48h0v2.39h0a4.5,4.5,0,0,0-3.36,1.56,5.81,5.81,0,0,0-1.46,3.92Z" transform="translate(-15.25 -17.78)"/><path class="cls-1" d="M134.89,283.27a5.81,5.81,0,0,0-1.46-3.92,4.5,4.5,0,0,0-3.36-1.56V275.4h0c2.66,0,4.82-2.46,4.82-5.47h2.39c0,3,2.16,5.48,4.82,5.48h0v2.39h0a4.5,4.5,0,0,0-3.36,1.56,5.81,5.81,0,0,0-1.46,3.92Z" transform="translate(-15.25 -17.78)"/><path class="cls-1" d="M192.3,283.27a5.81,5.81,0,0,0-1.46-3.92,4.5,4.5,0,0,0-3.36-1.56V275.4h0c2.66,0,4.82-2.46,4.82-5.47h2.39c0,3,2.16,5.48,4.82,5.48h0v2.39h0a4.5,4.5,0,0,0-3.35,1.56,5.81,5.81,0,0,0-1.46,3.92Z" transform="translate(-15.25 -17.78)"/><path class="cls-1" d="M249.71,283.27a5.81,5.81,0,0,0-1.46-3.92,4.52,4.52,0,0,0-3.36-1.56V275.4h0c2.66,0,4.82-2.46,4.82-5.47h2.39c0,3,2.16,5.48,4.82,5.48h0v2.39h0a4.5,4.5,0,0,0-3.35,1.56,5.81,5.81,0,0,0-1.46,3.92Z" transform="translate(-15.25 -17.78)"/><path class="cls-1" d="M307.12,283.27a5.81,5.81,0,0,0-1.46-3.92,4.52,4.52,0,0,0-3.36-1.56V275.4h0c2.66,0,4.82-2.46,4.82-5.47h2.39c0,3,2.16,5.48,4.81,5.48h0v2.39h0a4.53,4.53,0,0,0-3.36,1.56,5.85,5.85,0,0,0-1.45,3.92Z" transform="translate(-15.25 -17.78)"/><path class="cls-1" d="M823.8,333.7a5.8,5.8,0,0,0-1.45-3.92,4.52,4.52,0,0,0-3.36-1.56v-2.39h0c2.65,0,4.81-2.46,4.81-5.48h2.4c0,3,2.16,5.48,4.81,5.48h0v2.39h0a4.53,4.53,0,0,0-3.36,1.56,5.85,5.85,0,0,0-1.45,3.92Z" transform="translate(-15.25 -17.78)"/><path class="cls-1" d="M881.21,333.7a5.8,5.8,0,0,0-1.45-3.92,4.52,4.52,0,0,0-3.36-1.56v-2.39h0c2.65,0,4.81-2.46,4.81-5.48h2.4c0,3,2.16,5.48,4.81,5.48h0v2.39h0a4.53,4.53,0,0,0-3.36,1.56,5.85,5.85,0,0,0-1.45,3.92Z" transform="translate(-15.25 -17.78)"/><path class="cls-1" d="M938.62,333.7a5.8,5.8,0,0,0-1.45-3.92,4.53,4.53,0,0,0-3.36-1.56v-2.39h0c2.65,0,4.81-2.46,4.81-5.48H941c0,3,2.16,5.48,4.81,5.48h0v2.39h0a4.53,4.53,0,0,0-3.36,1.56A5.8,5.8,0,0,0,941,333.7Z" transform="translate(-15.25 -17.78)"/><path class="cls-1" d="M996,333.7a5.8,5.8,0,0,0-1.45-3.92,4.53,4.53,0,0,0-3.36-1.56v-2.39h0c2.65,0,4.81-2.46,4.81-5.48h2.4c0,3,2.16,5.48,4.81,5.48h0v2.39h0a4.53,4.53,0,0,0-3.36,1.56,5.8,5.8,0,0,0-1.45,3.92Z" transform="translate(-15.25 -17.78)"/><path class="cls-1" d="M1053.44,333.7a5.8,5.8,0,0,0-1.45-3.92,4.53,4.53,0,0,0-3.36-1.56v-2.39h0c2.65,0,4.81-2.46,4.81-5.48h2.4c0,3,2.16,5.48,4.81,5.48h0v2.39h0a4.53,4.53,0,0,0-3.36,1.56,5.8,5.8,0,0,0-1.45,3.92Z" transform="translate(-15.25 -17.78)"/><path class="cls-1" d="M1110.85,333.7a5.8,5.8,0,0,0-1.45-3.92,4.53,4.53,0,0,0-3.36-1.56v-2.39h0c2.65,0,4.81-2.46,4.81-5.48h2.4c0,3,2.16,5.48,4.81,5.48h0v2.39h0a4.53,4.53,0,0,0-3.36,1.56,5.8,5.8,0,0,0-1.45,3.92Z" transform="translate(-15.25 -17.78)"/><path class="cls-1" d="M1168.26,333.7a5.8,5.8,0,0,0-1.45-3.92,4.53,4.53,0,0,0-3.36-1.56v-2.39h0c2.65,0,4.81-2.46,4.81-5.48h2.4c0,3,2.16,5.48,4.81,5.48h0v2.39h0a4.53,4.53,0,0,0-3.36,1.56,5.8,5.8,0,0,0-1.45,3.92Z" transform="translate(-15.25 -17.78)"/><path class="cls-1" d="M1225.67,333.7a5.8,5.8,0,0,0-1.45-3.92,4.53,4.53,0,0,0-3.36-1.56v-2.39h0c2.65,0,4.81-2.46,4.81-5.48h2.4c0,3,2.16,5.48,4.81,5.48h0v2.39h0a4.53,4.53,0,0,0-3.36,1.56,5.8,5.8,0,0,0-1.45,3.92Z" transform="translate(-15.25 -17.78)"/><path class="cls-1" d="M1283.08,333.7a5.8,5.8,0,0,0-1.45-3.92,4.53,4.53,0,0,0-3.36-1.56v-2.39h0c2.65,0,4.81-2.46,4.81-5.48h2.4c0,3,2.16,5.48,4.81,5.48h0v2.39h0a4.53,4.53,0,0,0-3.36,1.56,5.8,5.8,0,0,0-1.45,3.92Z" transform="translate(-15.25 -17.78)"/><path class="cls-1" d="M1340.49,333.7a5.8,5.8,0,0,0-1.45-3.92,4.53,4.53,0,0,0-3.36-1.56v-2.39h0c2.65,0,4.81-2.46,4.81-5.48h2.4c0,3,2.16,5.48,4.81,5.48h0v2.39h0a4.52,4.52,0,0,0-3.36,1.56,5.8,5.8,0,0,0-1.45,3.92Z" transform="translate(-15.25 -17.78)"/><path class="cls-1" d="M364.53,333.7a5.81,5.81,0,0,0-1.46-3.92,4.52,4.52,0,0,0-3.36-1.56v-2.39h0c2.66,0,4.82-2.46,4.82-5.48h2.39c0,3,2.16,5.48,4.81,5.48h0v2.39h0a4.53,4.53,0,0,0-3.36,1.56,5.85,5.85,0,0,0-1.45,3.92Z" transform="translate(-15.25 -17.78)"/><path class="cls-1" d="M421.94,333.7a5.81,5.81,0,0,0-1.46-3.92,4.52,4.52,0,0,0-3.36-1.56v-2.39h0c2.66,0,4.82-2.46,4.82-5.48h2.39c0,3,2.16,5.48,4.81,5.48h0v2.39h0a4.53,4.53,0,0,0-3.36,1.56,5.85,5.85,0,0,0-1.45,3.92Z" transform="translate(-15.25 -17.78)"/><path class="cls-1" d="M479.35,333.7a5.81,5.81,0,0,0-1.46-3.92,4.52,4.52,0,0,0-3.36-1.56v-2.39h0c2.66,0,4.81-2.46,4.82-5.48h2.39c0,3,2.16,5.48,4.81,5.48h0v2.39h0a4.53,4.53,0,0,0-3.36,1.56,5.85,5.85,0,0,0-1.45,3.92Z" transform="translate(-15.25 -17.78)"/><path class="cls-1" d="M536.75,333.7a5.8,5.8,0,0,0-1.45-3.92,4.52,4.52,0,0,0-3.36-1.56v-2.39h0c2.66,0,4.81-2.46,4.81-5.48h2.4c0,3,2.16,5.48,4.81,5.48h0v2.39h0a4.53,4.53,0,0,0-3.36,1.56,5.85,5.85,0,0,0-1.45,3.92Z" transform="translate(-15.25 -17.78)"/><path class="cls-1" d="M20.07,333.7a5.81,5.81,0,0,0-1.46-3.92,4.5,4.5,0,0,0-3.36-1.56v-2.39h0c2.66,0,4.82-2.46,4.82-5.48h2.39c0,3,2.16,5.48,4.82,5.48h0v2.39h0a4.5,4.5,0,0,0-3.36,1.56,5.81,5.81,0,0,0-1.46,3.92Z" transform="translate(-15.25 -17.78)"/><path class="cls-1" d="M77.48,333.7A5.81,5.81,0,0,0,76,329.78a4.5,4.5,0,0,0-3.36-1.56v-2.39h0c2.66,0,4.82-2.46,4.82-5.48h2.39c0,3,2.16,5.48,4.82,5.48h0v2.39h0a4.5,4.5,0,0,0-3.36,1.56,5.81,5.81,0,0,0-1.46,3.92Z" transform="translate(-15.25 -17.78)"/><path class="cls-1" d="M134.89,333.7a5.81,5.81,0,0,0-1.46-3.92,4.5,4.5,0,0,0-3.36-1.56v-2.39h0c2.66,0,4.82-2.46,4.82-5.48h2.39c0,3,2.16,5.48,4.82,5.48h0v2.39h0a4.5,4.5,0,0,0-3.36,1.56,5.81,5.81,0,0,0-1.46,3.92Z" transform="translate(-15.25 -17.78)"/><path class="cls-1" d="M192.3,333.7a5.81,5.81,0,0,0-1.46-3.92,4.5,4.5,0,0,0-3.36-1.56v-2.39h0c2.66,0,4.82-2.46,4.82-5.48h2.39c0,3,2.16,5.48,4.82,5.48h0v2.39h0a4.5,4.5,0,0,0-3.35,1.56,5.81,5.81,0,0,0-1.46,3.92Z" transform="translate(-15.25 -17.78)"/><path class="cls-1" d="M249.71,333.7a5.81,5.81,0,0,0-1.46-3.92,4.52,4.52,0,0,0-3.36-1.56v-2.39h0c2.66,0,4.82-2.46,4.82-5.48h2.39c0,3,2.16,5.48,4.82,5.48h0v2.39h0a4.5,4.5,0,0,0-3.35,1.56,5.81,5.81,0,0,0-1.46,3.92Z" transform="translate(-15.25 -17.78)"/><path class="cls-1" d="M307.12,333.7a5.81,5.81,0,0,0-1.46-3.92,4.52,4.52,0,0,0-3.36-1.56v-2.39h0c2.66,0,4.82-2.46,4.82-5.48h2.39c0,3,2.16,5.48,4.81,5.48h0v2.39h0a4.53,4.53,0,0,0-3.36,1.56,5.85,5.85,0,0,0-1.45,3.92Z" transform="translate(-15.25 -17.78)"/><path class="cls-1" d="M823.8,384.13a5.8,5.8,0,0,0-1.45-3.92,4.52,4.52,0,0,0-3.36-1.56v-2.39h0c2.65,0,4.81-2.46,4.81-5.48h2.4c0,3,2.16,5.48,4.81,5.48h0v2.39h0a4.53,4.53,0,0,0-3.36,1.56,5.85,5.85,0,0,0-1.45,3.92Z" transform="translate(-15.25 -17.78)"/><path class="cls-1" d="M881.21,384.13a5.8,5.8,0,0,0-1.45-3.92,4.52,4.52,0,0,0-3.36-1.56v-2.39h0c2.65,0,4.81-2.46,4.81-5.48h2.4c0,3,2.16,5.48,4.81,5.48h0v2.39h0a4.53,4.53,0,0,0-3.36,1.56,5.85,5.85,0,0,0-1.45,3.92Z" transform="translate(-15.25 -17.78)"/><path class="cls-1" d="M938.62,384.13a5.8,5.8,0,0,0-1.45-3.92,4.53,4.53,0,0,0-3.36-1.56v-2.39h0c2.65,0,4.81-2.46,4.81-5.48H941c0,3,2.16,5.48,4.81,5.48h0v2.39h0a4.53,4.53,0,0,0-3.36,1.56,5.8,5.8,0,0,0-1.45,3.92Z" transform="translate(-15.25 -17.78)"/><path class="cls-1" d="M996,384.13a5.8,5.8,0,0,0-1.45-3.92,4.53,4.53,0,0,0-3.36-1.56v-2.39h0c2.65,0,4.81-2.46,4.81-5.48h2.4c0,3,2.16,5.48,4.81,5.48h0v2.39h0a4.53,4.53,0,0,0-3.36,1.56,5.8,5.8,0,0,0-1.45,3.92Z" transform="translate(-15.25 -17.78)"/><path class="cls-1" d="M1053.44,384.13a5.8,5.8,0,0,0-1.45-3.92,4.53,4.53,0,0,0-3.36-1.56v-2.39h0c2.65,0,4.81-2.46,4.81-5.48h2.4c0,3,2.16,5.48,4.81,5.48h0v2.39h0a4.53,4.53,0,0,0-3.36,1.56,5.8,5.8,0,0,0-1.45,3.92Z" transform="translate(-15.25 -17.78)"/><path class="cls-1" d="M1110.85,384.13a5.8,5.8,0,0,0-1.45-3.92,4.53,4.53,0,0,0-3.36-1.56v-2.39h0c2.65,0,4.81-2.46,4.81-5.48h2.4c0,3,2.16,5.48,4.81,5.48h0v2.39h0a4.53,4.53,0,0,0-3.36,1.56,5.8,5.8,0,0,0-1.45,3.92Z" transform="translate(-15.25 -17.78)"/><path class="cls-1" d="M1168.26,384.13a5.8,5.8,0,0,0-1.45-3.92,4.53,4.53,0,0,0-3.36-1.56v-2.39h0c2.65,0,4.81-2.46,4.81-5.48h2.4c0,3,2.16,5.48,4.81,5.48h0v2.39h0a4.53,4.53,0,0,0-3.36,1.56,5.8,5.8,0,0,0-1.45,3.92Z" transform="translate(-15.25 -17.78)"/><path class="cls-1" d="M1225.67,384.13a5.8,5.8,0,0,0-1.45-3.92,4.53,4.53,0,0,0-3.36-1.56v-2.39h0c2.65,0,4.81-2.46,4.81-5.48h2.4c0,3,2.16,5.48,4.81,5.48h0v2.39h0a4.53,4.53,0,0,0-3.36,1.56,5.8,5.8,0,0,0-1.45,3.92Z" transform="translate(-15.25 -17.78)"/><path class="cls-1" d="M1283.08,384.13a5.8,5.8,0,0,0-1.45-3.92,4.53,4.53,0,0,0-3.36-1.56v-2.39h0c2.65,0,4.81-2.46,4.81-5.48h2.4c0,3,2.16,5.48,4.81,5.48h0v2.39h0a4.53,4.53,0,0,0-3.36,1.56,5.8,5.8,0,0,0-1.45,3.92Z" transform="translate(-15.25 -17.78)"/><path class="cls-1" d="M1340.49,384.13a5.8,5.8,0,0,0-1.45-3.92,4.53,4.53,0,0,0-3.36-1.56v-2.39h0c2.65,0,4.81-2.46,4.81-5.48h2.4c0,3,2.16,5.48,4.81,5.48h0v2.39h0a4.52,4.52,0,0,0-3.36,1.56,5.8,5.8,0,0,0-1.45,3.92Z" transform="translate(-15.25 -17.78)"/><path class="cls-1" d="M364.53,384.13a5.81,5.81,0,0,0-1.46-3.92,4.52,4.52,0,0,0-3.36-1.56v-2.39h0c2.66,0,4.82-2.46,4.82-5.48h2.39c0,3,2.16,5.48,4.81,5.48h0v2.39h0a4.53,4.53,0,0,0-3.36,1.56,5.85,5.85,0,0,0-1.45,3.92Z" transform="translate(-15.25 -17.78)"/><path class="cls-1" d="M421.94,384.13a5.81,5.81,0,0,0-1.46-3.92,4.52,4.52,0,0,0-3.36-1.56v-2.39h0c2.66,0,4.82-2.46,4.82-5.48h2.39c0,3,2.16,5.48,4.81,5.48h0v2.39h0a4.53,4.53,0,0,0-3.36,1.56,5.85,5.85,0,0,0-1.45,3.92Z" transform="translate(-15.25 -17.78)"/><path class="cls-1" d="M479.35,384.13a5.81,5.81,0,0,0-1.46-3.92,4.52,4.52,0,0,0-3.36-1.56v-2.39h0c2.66,0,4.81-2.46,4.82-5.48h2.39c0,3,2.16,5.48,4.81,5.48h0v2.39h0a4.53,4.53,0,0,0-3.36,1.56,5.85,5.85,0,0,0-1.45,3.92Z" transform="translate(-15.25 -17.78)"/><path class="cls-1" d="M536.75,384.13a5.8,5.8,0,0,0-1.45-3.92,4.52,4.52,0,0,0-3.36-1.56v-2.39h0c2.66,0,4.81-2.46,4.81-5.48h2.4c0,3,2.16,5.48,4.81,5.48h0v2.39h0a4.53,4.53,0,0,0-3.36,1.56,5.85,5.85,0,0,0-1.45,3.92Z" transform="translate(-15.25 -17.78)"/><path class="cls-1" d="M20.07,384.13a5.81,5.81,0,0,0-1.46-3.92,4.5,4.5,0,0,0-3.36-1.56v-2.39h0c2.66,0,4.82-2.46,4.82-5.48h2.39c0,3,2.16,5.48,4.82,5.48h0v2.39h0a4.5,4.5,0,0,0-3.36,1.56,5.81,5.81,0,0,0-1.46,3.92Z" transform="translate(-15.25 -17.78)"/><path class="cls-1" d="M77.48,384.13A5.81,5.81,0,0,0,76,380.21a4.5,4.5,0,0,0-3.36-1.56v-2.39h0c2.66,0,4.82-2.46,4.82-5.48h2.39c0,3,2.16,5.48,4.82,5.48h0v2.39h0a4.5,4.5,0,0,0-3.36,1.56,5.81,5.81,0,0,0-1.46,3.92Z" transform="translate(-15.25 -17.78)"/><path class="cls-1" d="M134.89,384.13a5.81,5.81,0,0,0-1.46-3.92,4.5,4.5,0,0,0-3.36-1.56v-2.39h0c2.66,0,4.82-2.46,4.82-5.48h2.39c0,3,2.16,5.48,4.82,5.48h0v2.39h0a4.5,4.5,0,0,0-3.36,1.56,5.81,5.81,0,0,0-1.46,3.92Z" transform="translate(-15.25 -17.78)"/><path class="cls-1" d="M192.3,384.13a5.81,5.81,0,0,0-1.46-3.92,4.5,4.5,0,0,0-3.36-1.56v-2.39h0c2.66,0,4.82-2.46,4.82-5.48h2.39c0,3,2.16,5.48,4.82,5.48h0v2.39h0a4.5,4.5,0,0,0-3.35,1.56,5.81,5.81,0,0,0-1.46,3.92Z" transform="translate(-15.25 -17.78)"/><path class="cls-1" d="M249.71,384.13a5.81,5.81,0,0,0-1.46-3.92,4.52,4.52,0,0,0-3.36-1.56v-2.39h0c2.66,0,4.82-2.46,4.82-5.48h2.39c0,3,2.16,5.48,4.82,5.48h0v2.39h0a4.5,4.5,0,0,0-3.35,1.56,5.81,5.81,0,0,0-1.46,3.92Z" transform="translate(-15.25 -17.78)"/><path class="cls-1" d="M307.12,384.13a5.81,5.81,0,0,0-1.46-3.92,4.52,4.52,0,0,0-3.36-1.56v-2.39h0c2.66,0,4.82-2.46,4.82-5.48h2.39c0,3,2.16,5.48,4.81,5.48h0v2.39h0a4.53,4.53,0,0,0-3.36,1.56,5.85,5.85,0,0,0-1.45,3.92Z" transform="translate(-15.25 -17.78)"/><path class="cls-1" d="M709,434.55a5.8,5.8,0,0,0-1.45-3.91,4.48,4.48,0,0,0-3.36-1.56v-2.4h0c2.65,0,4.81-2.45,4.81-5.47h2.4c0,3,2.16,5.47,4.81,5.47h0v2.4h0a4.5,4.5,0,0,0-3.36,1.56,5.85,5.85,0,0,0-1.45,3.91Z" transform="translate(-15.25 -17.78)"/><path class="cls-1" d="M766.39,434.55a5.8,5.8,0,0,0-1.45-3.91,4.48,4.48,0,0,0-3.36-1.56v-2.4h0c2.65,0,4.81-2.45,4.81-5.47h2.4c0,3,2.16,5.47,4.81,5.47h0v2.4h0a4.5,4.5,0,0,0-3.36,1.56,5.85,5.85,0,0,0-1.45,3.91Z" transform="translate(-15.25 -17.78)"/><path class="cls-1" d="M823.8,434.55a5.8,5.8,0,0,0-1.45-3.91,4.48,4.48,0,0,0-3.36-1.56v-2.4h0c2.65,0,4.81-2.45,4.81-5.47h2.4c0,3,2.16,5.47,4.81,5.47h0v2.4h0a4.5,4.5,0,0,0-3.36,1.56,5.85,5.85,0,0,0-1.45,3.91Z" transform="translate(-15.25 -17.78)"/><path class="cls-1" d="M881.21,434.55a5.8,5.8,0,0,0-1.45-3.91,4.48,4.48,0,0,0-3.36-1.56v-2.4h0c2.65,0,4.81-2.45,4.81-5.47h2.4c0,3,2.16,5.47,4.81,5.47h0v2.4h0a4.5,4.5,0,0,0-3.36,1.56,5.85,5.85,0,0,0-1.45,3.91Z" transform="translate(-15.25 -17.78)"/><path class="cls-1" d="M938.62,434.55a5.8,5.8,0,0,0-1.45-3.91,4.5,4.5,0,0,0-3.36-1.56v-2.4h0c2.65,0,4.81-2.45,4.81-5.47H941c0,3,2.16,5.47,4.81,5.47h0v2.4h0a4.5,4.5,0,0,0-3.36,1.56,5.8,5.8,0,0,0-1.45,3.91Z" transform="translate(-15.25 -17.78)"/><path class="cls-1" d="M996,434.55a5.8,5.8,0,0,0-1.45-3.91,4.5,4.5,0,0,0-3.36-1.56v-2.4h0c2.65,0,4.81-2.45,4.81-5.47h2.4c0,3,2.16,5.47,4.81,5.47h0v2.4h0a4.5,4.5,0,0,0-3.36,1.56,5.8,5.8,0,0,0-1.45,3.91Z" transform="translate(-15.25 -17.78)"/><path class="cls-1" d="M1053.44,434.55a5.8,5.8,0,0,0-1.45-3.91,4.5,4.5,0,0,0-3.36-1.56v-2.4h0c2.65,0,4.81-2.45,4.81-5.47h2.4c0,3,2.16,5.47,4.81,5.47h0v2.4h0a4.5,4.5,0,0,0-3.36,1.56,5.8,5.8,0,0,0-1.45,3.91Z" transform="translate(-15.25 -17.78)"/><path class="cls-1" d="M1110.85,434.55a5.8,5.8,0,0,0-1.45-3.91,4.5,4.5,0,0,0-3.36-1.56v-2.4h0c2.65,0,4.81-2.45,4.81-5.47h2.4c0,3,2.16,5.47,4.81,5.47h0v2.4h0a4.5,4.5,0,0,0-3.36,1.56,5.8,5.8,0,0,0-1.45,3.91Z" transform="translate(-15.25 -17.78)"/><path class="cls-1" d="M1168.26,434.55a5.8,5.8,0,0,0-1.45-3.91,4.5,4.5,0,0,0-3.36-1.56v-2.4h0c2.65,0,4.81-2.45,4.81-5.47h2.4c0,3,2.16,5.47,4.81,5.47h0v2.4h0a4.5,4.5,0,0,0-3.36,1.56,5.8,5.8,0,0,0-1.45,3.91Z" transform="translate(-15.25 -17.78)"/><path class="cls-1" d="M1225.67,434.55a5.8,5.8,0,0,0-1.45-3.91,4.5,4.5,0,0,0-3.36-1.56v-2.4h0c2.65,0,4.81-2.45,4.81-5.47h2.4c0,3,2.16,5.47,4.81,5.47h0v2.4h0a4.5,4.5,0,0,0-3.36,1.56,5.8,5.8,0,0,0-1.45,3.91Z" transform="translate(-15.25 -17.78)"/><path class="cls-1" d="M1283.08,434.55a5.8,5.8,0,0,0-1.45-3.91,4.5,4.5,0,0,0-3.36-1.56v-2.4h0c2.65,0,4.81-2.45,4.81-5.47h2.4c0,3,2.16,5.47,4.81,5.47h0v2.4h0a4.5,4.5,0,0,0-3.36,1.56,5.8,5.8,0,0,0-1.45,3.91Z" transform="translate(-15.25 -17.78)"/><path class="cls-1" d="M1340.49,434.55a5.8,5.8,0,0,0-1.45-3.91,4.5,4.5,0,0,0-3.36-1.56v-2.4h0c2.65,0,4.81-2.45,4.81-5.47h2.4c0,3,2.16,5.47,4.81,5.47h0v2.4h0a4.48,4.48,0,0,0-3.36,1.56,5.8,5.8,0,0,0-1.45,3.91Z" transform="translate(-15.25 -17.78)"/><path class="cls-1" d="M364.53,434.55a5.81,5.81,0,0,0-1.46-3.91,4.48,4.48,0,0,0-3.36-1.56v-2.4h0c2.66,0,4.82-2.45,4.82-5.47h2.39c0,3,2.16,5.47,4.81,5.47h0v2.4h0a4.5,4.5,0,0,0-3.36,1.56,5.85,5.85,0,0,0-1.45,3.91Z" transform="translate(-15.25 -17.78)"/><path class="cls-1" d="M421.94,434.55a5.81,5.81,0,0,0-1.46-3.91,4.48,4.48,0,0,0-3.36-1.56v-2.4h0c2.66,0,4.82-2.45,4.82-5.47h2.39c0,3,2.16,5.47,4.81,5.47h0v2.4h0a4.5,4.5,0,0,0-3.36,1.56,5.85,5.85,0,0,0-1.45,3.91Z" transform="translate(-15.25 -17.78)"/><path class="cls-1" d="M479.35,434.55a5.81,5.81,0,0,0-1.46-3.91,4.48,4.48,0,0,0-3.36-1.56v-2.4h0c2.66,0,4.81-2.45,4.82-5.47h2.39c0,3,2.16,5.47,4.81,5.47h0v2.4h0a4.5,4.5,0,0,0-3.36,1.56,5.85,5.85,0,0,0-1.45,3.91Z" transform="translate(-15.25 -17.78)"/><path class="cls-1" d="M536.75,434.55a5.8,5.8,0,0,0-1.45-3.91,4.48,4.48,0,0,0-3.36-1.56v-2.4h0c2.66,0,4.81-2.45,4.81-5.47h2.4c0,3,2.16,5.47,4.81,5.47h0v2.4h0a4.5,4.5,0,0,0-3.36,1.56,5.85,5.85,0,0,0-1.45,3.91Z" transform="translate(-15.25 -17.78)"/><path class="cls-1" d="M594.16,434.55a5.8,5.8,0,0,0-1.45-3.91,4.48,4.48,0,0,0-3.36-1.56v-2.4h0c2.66,0,4.81-2.45,4.81-5.47h2.4c0,3,2.16,5.47,4.81,5.47h0v2.4h0a4.5,4.5,0,0,0-3.36,1.56,5.85,5.85,0,0,0-1.45,3.91Z" transform="translate(-15.25 -17.78)"/><path class="cls-1" d="M651.57,434.55a5.8,5.8,0,0,0-1.45-3.91,4.48,4.48,0,0,0-3.36-1.56v-2.4h0c2.66,0,4.81-2.45,4.81-5.47H654c0,3,2.16,5.47,4.81,5.47h0v2.4h0a4.5,4.5,0,0,0-3.36,1.56,5.85,5.85,0,0,0-1.45,3.91Z" transform="translate(-15.25 -17.78)"/><path class="cls-1" d="M20.07,434.55a5.81,5.81,0,0,0-1.46-3.91,4.47,4.47,0,0,0-3.36-1.56v-2.4h0c2.66,0,4.82-2.45,4.82-5.47h2.39c0,3,2.16,5.47,4.82,5.47h0v2.4h0a4.47,4.47,0,0,0-3.36,1.56,5.81,5.81,0,0,0-1.46,3.91Z" transform="translate(-15.25 -17.78)"/><path class="cls-1" d="M77.48,434.55A5.81,5.81,0,0,0,76,430.64a4.47,4.47,0,0,0-3.36-1.56v-2.4h0c2.66,0,4.82-2.45,4.82-5.47h2.39c0,3,2.16,5.47,4.82,5.47h0v2.4h0a4.47,4.47,0,0,0-3.36,1.56,5.81,5.81,0,0,0-1.46,3.91Z" transform="translate(-15.25 -17.78)"/><path class="cls-1" d="M134.89,434.55a5.81,5.81,0,0,0-1.46-3.91,4.47,4.47,0,0,0-3.36-1.56v-2.4h0c2.66,0,4.82-2.45,4.82-5.47h2.39c0,3,2.16,5.47,4.82,5.47h0v2.4h0a4.47,4.47,0,0,0-3.36,1.56,5.81,5.81,0,0,0-1.46,3.91Z" transform="translate(-15.25 -17.78)"/><path class="cls-1" d="M192.3,434.55a5.81,5.81,0,0,0-1.46-3.91,4.47,4.47,0,0,0-3.36-1.56v-2.4h0c2.66,0,4.82-2.45,4.82-5.47h2.39c0,3,2.16,5.47,4.82,5.47h0v2.4h0a4.46,4.46,0,0,0-3.35,1.56,5.81,5.81,0,0,0-1.46,3.91Z" transform="translate(-15.25 -17.78)"/><path class="cls-1" d="M249.71,434.55a5.81,5.81,0,0,0-1.46-3.91,4.48,4.48,0,0,0-3.36-1.56v-2.4h0c2.66,0,4.82-2.45,4.82-5.47h2.39c0,3,2.16,5.47,4.82,5.47h0v2.4h0a4.46,4.46,0,0,0-3.35,1.56,5.81,5.81,0,0,0-1.46,3.91Z" transform="translate(-15.25 -17.78)"/><path class="cls-1" d="M307.12,434.55a5.81,5.81,0,0,0-1.46-3.91,4.48,4.48,0,0,0-3.36-1.56v-2.4h0c2.66,0,4.82-2.45,4.82-5.47h2.39c0,3,2.16,5.47,4.81,5.47h0v2.4h0a4.5,4.5,0,0,0-3.36,1.56,5.85,5.85,0,0,0-1.45,3.91Z" transform="translate(-15.25 -17.78)"/><path class="cls-1" d="M1110.85,485a5.8,5.8,0,0,0-1.45-3.91,4.5,4.5,0,0,0-3.36-1.56v-2.4h0c2.65,0,4.81-2.45,4.81-5.47h2.4c0,3,2.16,5.47,4.81,5.47h0v2.4h0a4.5,4.5,0,0,0-3.36,1.56,5.8,5.8,0,0,0-1.45,3.91Z" transform="translate(-15.25 -17.78)"/><path class="cls-1" d="M1168.26,485a5.8,5.8,0,0,0-1.45-3.91,4.5,4.5,0,0,0-3.36-1.56v-2.4h0c2.65,0,4.81-2.45,4.81-5.47h2.4c0,3,2.16,5.47,4.81,5.47h0v2.4h0a4.5,4.5,0,0,0-3.36,1.56,5.8,5.8,0,0,0-1.45,3.91Z" transform="translate(-15.25 -17.78)"/><path class="cls-1" d="M1225.67,485a5.8,5.8,0,0,0-1.45-3.91,4.5,4.5,0,0,0-3.36-1.56v-2.4h0c2.65,0,4.81-2.45,4.81-5.47h2.4c0,3,2.16,5.47,4.81,5.47h0v2.4h0a4.5,4.5,0,0,0-3.36,1.56,5.8,5.8,0,0,0-1.45,3.91Z" transform="translate(-15.25 -17.78)"/><path class="cls-1" d="M1283.08,485a5.8,5.8,0,0,0-1.45-3.91,4.5,4.5,0,0,0-3.36-1.56v-2.4h0c2.65,0,4.81-2.45,4.81-5.47h2.4c0,3,2.16,5.47,4.81,5.47h0v2.4h0a4.5,4.5,0,0,0-3.36,1.56,5.8,5.8,0,0,0-1.45,3.91Z" transform="translate(-15.25 -17.78)"/><path class="cls-1" d="M1340.49,485a5.8,5.8,0,0,0-1.45-3.91,4.5,4.5,0,0,0-3.36-1.56v-2.4h0c2.65,0,4.81-2.45,4.81-5.47h2.4c0,3,2.16,5.47,4.81,5.47h0v2.4h0a4.48,4.48,0,0,0-3.36,1.56,5.8,5.8,0,0,0-1.45,3.91Z" transform="translate(-15.25 -17.78)"/><path class="cls-1" d="M20.07,485a5.81,5.81,0,0,0-1.46-3.91,4.47,4.47,0,0,0-3.36-1.56v-2.4h0c2.66,0,4.82-2.45,4.82-5.47h2.39c0,3,2.16,5.47,4.82,5.47h0v2.4h0a4.47,4.47,0,0,0-3.36,1.56A5.81,5.81,0,0,0,22.46,485Z" transform="translate(-15.25 -17.78)"/><path class="cls-1" d="M77.48,485A5.81,5.81,0,0,0,76,481.07a4.47,4.47,0,0,0-3.36-1.56v-2.4h0c2.66,0,4.82-2.45,4.82-5.47h2.39c0,3,2.16,5.47,4.82,5.47h0v2.4h0a4.47,4.47,0,0,0-3.36,1.56A5.81,5.81,0,0,0,79.87,485Z" transform="translate(-15.25 -17.78)"/><path class="cls-1" d="M134.89,485a5.81,5.81,0,0,0-1.46-3.91,4.47,4.47,0,0,0-3.36-1.56v-2.4h0c2.66,0,4.82-2.45,4.82-5.47h2.39c0,3,2.16,5.47,4.82,5.47h0v2.4h0a4.47,4.47,0,0,0-3.36,1.56,5.81,5.81,0,0,0-1.46,3.91Z" transform="translate(-15.25 -17.78)"/><path class="cls-1" d="M192.3,485a5.81,5.81,0,0,0-1.46-3.91,4.47,4.47,0,0,0-3.36-1.56v-2.4h0c2.66,0,4.82-2.45,4.82-5.47h2.39c0,3,2.16,5.47,4.82,5.47h0v2.4h0a4.46,4.46,0,0,0-3.35,1.56,5.81,5.81,0,0,0-1.46,3.91Z" transform="translate(-15.25 -17.78)"/><path class="cls-1" d="M249.71,485a5.81,5.81,0,0,0-1.46-3.91,4.48,4.48,0,0,0-3.36-1.56v-2.4h0c2.66,0,4.82-2.45,4.82-5.47h2.39c0,3,2.16,5.47,4.82,5.47h0v2.4h0a4.46,4.46,0,0,0-3.35,1.56A5.81,5.81,0,0,0,252.1,485Z" transform="translate(-15.25 -17.78)"/><path class="cls-1" d="M709,535.41a5.8,5.8,0,0,0-1.45-3.91,4.48,4.48,0,0,0-3.36-1.56v-2.4h0c2.65,0,4.81-2.45,4.81-5.47h2.4c0,3,2.16,5.47,4.81,5.47h0v2.4h0a4.5,4.5,0,0,0-3.36,1.56,5.85,5.85,0,0,0-1.45,3.91Z" transform="translate(-15.25 -17.78)"/><path class="cls-1" d="M766.39,535.41a5.8,5.8,0,0,0-1.45-3.91,4.48,4.48,0,0,0-3.36-1.56v-2.4h0c2.65,0,4.81-2.45,4.81-5.47h2.4c0,3,2.16,5.47,4.81,5.47h0v2.4h0a4.5,4.5,0,0,0-3.36,1.56,5.85,5.85,0,0,0-1.45,3.91Z" transform="translate(-15.25 -17.78)"/><path class="cls-1" d="M823.8,535.41a5.8,5.8,0,0,0-1.45-3.91,4.48,4.48,0,0,0-3.36-1.56v-2.4h0c2.65,0,4.81-2.45,4.81-5.47h2.4c0,3,2.16,5.47,4.81,5.47h0v2.4h0a4.5,4.5,0,0,0-3.36,1.56,5.85,5.85,0,0,0-1.45,3.91Z" transform="translate(-15.25 -17.78)"/><path class="cls-1" d="M881.21,535.41a5.8,5.8,0,0,0-1.45-3.91,4.48,4.48,0,0,0-3.36-1.56v-2.4h0c2.65,0,4.81-2.45,4.81-5.47h2.4c0,3,2.16,5.47,4.81,5.47h0v2.4h0a4.5,4.5,0,0,0-3.36,1.56,5.85,5.85,0,0,0-1.45,3.91Z" transform="translate(-15.25 -17.78)"/><path class="cls-1" d="M938.62,535.41a5.8,5.8,0,0,0-1.45-3.91,4.5,4.5,0,0,0-3.36-1.56v-2.4h0c2.65,0,4.81-2.45,4.81-5.47H941c0,3,2.16,5.47,4.81,5.47h0v2.4h0a4.5,4.5,0,0,0-3.36,1.56,5.8,5.8,0,0,0-1.45,3.91Z" transform="translate(-15.25 -17.78)"/><path class="cls-1" d="M996,535.41a5.8,5.8,0,0,0-1.45-3.91,4.5,4.5,0,0,0-3.36-1.56v-2.4h0c2.65,0,4.81-2.45,4.81-5.47h2.4c0,3,2.16,5.47,4.81,5.47h0v2.4h0a4.5,4.5,0,0,0-3.36,1.56,5.8,5.8,0,0,0-1.45,3.91Z" transform="translate(-15.25 -17.78)"/><path class="cls-1" d="M1053.44,535.41a5.8,5.8,0,0,0-1.45-3.91,4.5,4.5,0,0,0-3.36-1.56v-2.4h0c2.65,0,4.81-2.45,4.81-5.47h2.4c0,3,2.16,5.47,4.81,5.47h0v2.4h0a4.5,4.5,0,0,0-3.36,1.56,5.8,5.8,0,0,0-1.45,3.91Z" transform="translate(-15.25 -17.78)"/><path class="cls-1" d="M1110.85,535.41a5.8,5.8,0,0,0-1.45-3.91,4.5,4.5,0,0,0-3.36-1.56v-2.4h0c2.65,0,4.81-2.45,4.81-5.47h2.4c0,3,2.16,5.47,4.81,5.47h0v2.4h0a4.5,4.5,0,0,0-3.36,1.56,5.8,5.8,0,0,0-1.45,3.91Z" transform="translate(-15.25 -17.78)"/><path class="cls-1" d="M1168.26,535.41a5.8,5.8,0,0,0-1.45-3.91,4.5,4.5,0,0,0-3.36-1.56v-2.4h0c2.65,0,4.81-2.45,4.81-5.47h2.4c0,3,2.16,5.47,4.81,5.47h0v2.4h0a4.5,4.5,0,0,0-3.36,1.56,5.8,5.8,0,0,0-1.45,3.91Z" transform="translate(-15.25 -17.78)"/><path class="cls-1" d="M1225.67,535.41a5.8,5.8,0,0,0-1.45-3.91,4.5,4.5,0,0,0-3.36-1.56v-2.4h0c2.65,0,4.81-2.45,4.81-5.47h2.4c0,3,2.16,5.47,4.81,5.47h0v2.4h0a4.5,4.5,0,0,0-3.36,1.56,5.8,5.8,0,0,0-1.45,3.91Z" transform="translate(-15.25 -17.78)"/><path class="cls-1" d="M1283.08,535.41a5.8,5.8,0,0,0-1.45-3.91,4.5,4.5,0,0,0-3.36-1.56v-2.4h0c2.65,0,4.81-2.45,4.81-5.47h2.4c0,3,2.16,5.47,4.81,5.47h0v2.4h0a4.5,4.5,0,0,0-3.36,1.56,5.8,5.8,0,0,0-1.45,3.91Z" transform="translate(-15.25 -17.78)"/><path class="cls-1" d="M1340.49,535.41a5.8,5.8,0,0,0-1.45-3.91,4.5,4.5,0,0,0-3.36-1.56v-2.4h0c2.65,0,4.81-2.45,4.81-5.47h2.4c0,3,2.16,5.47,4.81,5.47h0v2.4h0a4.48,4.48,0,0,0-3.36,1.56,5.8,5.8,0,0,0-1.45,3.91Z" transform="translate(-15.25 -17.78)"/><path class="cls-1" d="M364.53,535.41a5.81,5.81,0,0,0-1.46-3.91,4.48,4.48,0,0,0-3.36-1.56v-2.4h0c2.66,0,4.82-2.45,4.82-5.47h2.39c0,3,2.16,5.47,4.81,5.47h0v2.4h0a4.5,4.5,0,0,0-3.36,1.56,5.85,5.85,0,0,0-1.45,3.91Z" transform="translate(-15.25 -17.78)"/><path class="cls-1" d="M421.94,535.41a5.81,5.81,0,0,0-1.46-3.91,4.48,4.48,0,0,0-3.36-1.56v-2.4h0c2.66,0,4.82-2.45,4.82-5.47h2.39c0,3,2.16,5.47,4.81,5.47h0v2.4h0a4.5,4.5,0,0,0-3.36,1.56,5.85,5.85,0,0,0-1.45,3.91Z" transform="translate(-15.25 -17.78)"/><path class="cls-1" d="M479.35,535.41a5.81,5.81,0,0,0-1.46-3.91,4.48,4.48,0,0,0-3.36-1.56v-2.4h0c2.66,0,4.81-2.45,4.82-5.47h2.39c0,3,2.16,5.47,4.81,5.47h0v2.4h0a4.5,4.5,0,0,0-3.36,1.56,5.85,5.85,0,0,0-1.45,3.91Z" transform="translate(-15.25 -17.78)"/><path class="cls-1" d="M536.75,535.41a5.8,5.8,0,0,0-1.45-3.91,4.48,4.48,0,0,0-3.36-1.56v-2.4h0c2.66,0,4.81-2.45,4.81-5.47h2.4c0,3,2.16,5.47,4.81,5.47h0v2.4h0a4.5,4.5,0,0,0-3.36,1.56,5.85,5.85,0,0,0-1.45,3.91Z" transform="translate(-15.25 -17.78)"/><path class="cls-1" d="M594.16,535.41a5.8,5.8,0,0,0-1.45-3.91,4.48,4.48,0,0,0-3.36-1.56v-2.4h0c2.66,0,4.81-2.45,4.81-5.47h2.4c0,3,2.16,5.47,4.81,5.47h0v2.4h0A4.5,4.5,0,0,0,598,531.5a5.85,5.85,0,0,0-1.45,3.91Z" transform="translate(-15.25 -17.78)"/><path class="cls-1" d="M651.57,535.41a5.8,5.8,0,0,0-1.45-3.91,4.48,4.48,0,0,0-3.36-1.56v-2.4h0c2.66,0,4.81-2.45,4.81-5.47H654c0,3,2.16,5.47,4.81,5.47h0v2.4h0a4.5,4.5,0,0,0-3.36,1.56,5.85,5.85,0,0,0-1.45,3.91Z" transform="translate(-15.25 -17.78)"/><path class="cls-1" d="M20.07,535.41a5.81,5.81,0,0,0-1.46-3.91,4.47,4.47,0,0,0-3.36-1.56v-2.4h0c2.66,0,4.82-2.45,4.82-5.47h2.39c0,3,2.16,5.47,4.82,5.47h0v2.4h0a4.47,4.47,0,0,0-3.36,1.56,5.81,5.81,0,0,0-1.46,3.91Z" transform="translate(-15.25 -17.78)"/><path class="cls-1" d="M77.48,535.41A5.81,5.81,0,0,0,76,531.5a4.47,4.47,0,0,0-3.36-1.56v-2.4h0c2.66,0,4.82-2.45,4.82-5.47h2.39c0,3,2.16,5.47,4.82,5.47h0v2.4h0a4.47,4.47,0,0,0-3.36,1.56,5.81,5.81,0,0,0-1.46,3.91Z" transform="translate(-15.25 -17.78)"/><path class="cls-1" d="M134.89,535.41a5.81,5.81,0,0,0-1.46-3.91,4.47,4.47,0,0,0-3.36-1.56v-2.4h0c2.66,0,4.82-2.45,4.82-5.47h2.39c0,3,2.16,5.47,4.82,5.47h0v2.4h0a4.47,4.47,0,0,0-3.36,1.56,5.81,5.81,0,0,0-1.46,3.91Z" transform="translate(-15.25 -17.78)"/><path class="cls-1" d="M192.3,535.41a5.81,5.81,0,0,0-1.46-3.91,4.47,4.47,0,0,0-3.36-1.56v-2.4h0c2.66,0,4.82-2.45,4.82-5.47h2.39c0,3,2.16,5.47,4.82,5.47h0v2.4h0a4.46,4.46,0,0,0-3.35,1.56,5.81,5.81,0,0,0-1.46,3.91Z" transform="translate(-15.25 -17.78)"/><path class="cls-1" d="M249.71,535.41a5.81,5.81,0,0,0-1.46-3.91,4.48,4.48,0,0,0-3.36-1.56v-2.4h0c2.66,0,4.82-2.45,4.82-5.47h2.39c0,3,2.16,5.47,4.82,5.47h0v2.4h0a4.46,4.46,0,0,0-3.35,1.56,5.81,5.81,0,0,0-1.46,3.91Z" transform="translate(-15.25 -17.78)"/><path class="cls-1" d="M307.12,535.41a5.81,5.81,0,0,0-1.46-3.91,4.48,4.48,0,0,0-3.36-1.56v-2.4h0c2.66,0,4.82-2.45,4.82-5.47h2.39c0,3,2.16,5.47,4.81,5.47h0v2.4h0A4.5,4.5,0,0,0,311,531.5a5.85,5.85,0,0,0-1.45,3.91Z" transform="translate(-15.25 -17.78)"/><path class="cls-1" d="M709,585.84a5.8,5.8,0,0,0-1.45-3.92,4.51,4.51,0,0,0-3.36-1.55V578h0c2.65,0,4.81-2.46,4.81-5.47h2.4c0,3,2.16,5.47,4.81,5.47h0v2.4h0a4.52,4.52,0,0,0-3.36,1.55,5.85,5.85,0,0,0-1.45,3.92Z" transform="translate(-15.25 -17.78)"/><path class="cls-1" d="M766.39,585.84a5.8,5.8,0,0,0-1.45-3.92,4.51,4.51,0,0,0-3.36-1.55V578h0c2.65,0,4.81-2.46,4.81-5.47h2.4c0,3,2.16,5.47,4.81,5.47h0v2.4h0a4.52,4.52,0,0,0-3.36,1.55,5.85,5.85,0,0,0-1.45,3.92Z" transform="translate(-15.25 -17.78)"/><path class="cls-1" d="M823.8,585.84a5.8,5.8,0,0,0-1.45-3.92,4.51,4.51,0,0,0-3.36-1.55V578h0c2.65,0,4.81-2.46,4.81-5.47h2.4c0,3,2.16,5.47,4.81,5.47h0v2.4h0a4.52,4.52,0,0,0-3.36,1.55,5.85,5.85,0,0,0-1.45,3.92Z" transform="translate(-15.25 -17.78)"/><path class="cls-1" d="M881.21,585.84a5.8,5.8,0,0,0-1.45-3.92,4.51,4.51,0,0,0-3.36-1.55V578h0c2.65,0,4.81-2.46,4.81-5.47h2.4c0,3,2.16,5.47,4.81,5.47h0v2.4h0a4.52,4.52,0,0,0-3.36,1.55,5.85,5.85,0,0,0-1.45,3.92Z" transform="translate(-15.25 -17.78)"/><path class="cls-1" d="M938.62,585.84a5.8,5.8,0,0,0-1.45-3.92,4.52,4.52,0,0,0-3.36-1.55V578h0c2.65,0,4.81-2.46,4.81-5.47H941c0,3,2.16,5.47,4.81,5.47h0v2.4h0a4.52,4.52,0,0,0-3.36,1.55,5.8,5.8,0,0,0-1.45,3.92Z" transform="translate(-15.25 -17.78)"/><path class="cls-1" d="M996,585.84a5.8,5.8,0,0,0-1.45-3.92,4.52,4.52,0,0,0-3.36-1.55V578h0c2.65,0,4.81-2.46,4.81-5.47h2.4c0,3,2.16,5.47,4.81,5.47h0v2.4h0a4.52,4.52,0,0,0-3.36,1.55,5.8,5.8,0,0,0-1.45,3.92Z" transform="translate(-15.25 -17.78)"/><path class="cls-1" d="M1053.44,585.84a5.8,5.8,0,0,0-1.45-3.92,4.52,4.52,0,0,0-3.36-1.55V578h0c2.65,0,4.81-2.46,4.81-5.47h2.4c0,3,2.16,5.47,4.81,5.47h0v2.4h0a4.52,4.52,0,0,0-3.36,1.55,5.8,5.8,0,0,0-1.45,3.92Z" transform="translate(-15.25 -17.78)"/><path class="cls-1" d="M1110.85,585.84a5.8,5.8,0,0,0-1.45-3.92,4.52,4.52,0,0,0-3.36-1.55V578h0c2.65,0,4.81-2.46,4.81-5.47h2.4c0,3,2.16,5.47,4.81,5.47h0v2.4h0a4.52,4.52,0,0,0-3.36,1.55,5.8,5.8,0,0,0-1.45,3.92Z" transform="translate(-15.25 -17.78)"/><path class="cls-1" d="M1168.26,585.84a5.8,5.8,0,0,0-1.45-3.92,4.52,4.52,0,0,0-3.36-1.55V578h0c2.65,0,4.81-2.46,4.81-5.47h2.4c0,3,2.16,5.47,4.81,5.47h0v2.4h0a4.52,4.52,0,0,0-3.36,1.55,5.8,5.8,0,0,0-1.45,3.92Z" transform="translate(-15.25 -17.78)"/><path class="cls-1" d="M1225.67,585.84a5.8,5.8,0,0,0-1.45-3.92,4.52,4.52,0,0,0-3.36-1.55V578h0c2.65,0,4.81-2.46,4.81-5.47h2.4c0,3,2.16,5.47,4.81,5.47h0v2.4h0a4.52,4.52,0,0,0-3.36,1.55,5.8,5.8,0,0,0-1.45,3.92Z" transform="translate(-15.25 -17.78)"/><path class="cls-1" d="M1283.08,585.84a5.8,5.8,0,0,0-1.45-3.92,4.52,4.52,0,0,0-3.36-1.55V578h0c2.65,0,4.81-2.46,4.81-5.47h2.4c0,3,2.16,5.47,4.81,5.47h0v2.4h0a4.52,4.52,0,0,0-3.36,1.55,5.8,5.8,0,0,0-1.45,3.92Z" transform="translate(-15.25 -17.78)"/><path class="cls-1" d="M1340.49,585.84a5.8,5.8,0,0,0-1.45-3.92,4.52,4.52,0,0,0-3.36-1.55V578h0c2.65,0,4.81-2.46,4.81-5.47h2.4c0,3,2.16,5.47,4.81,5.47h0v2.4h0a4.51,4.51,0,0,0-3.36,1.55,5.8,5.8,0,0,0-1.45,3.92Z" transform="translate(-15.25 -17.78)"/><path class="cls-1" d="M364.53,585.84a5.81,5.81,0,0,0-1.46-3.92,4.51,4.51,0,0,0-3.36-1.55V578h0c2.66,0,4.82-2.46,4.82-5.47h2.39c0,3,2.16,5.47,4.81,5.47h0v2.4h0a4.52,4.52,0,0,0-3.36,1.55,5.85,5.85,0,0,0-1.45,3.92Z" transform="translate(-15.25 -17.78)"/><path class="cls-1" d="M421.94,585.84a5.81,5.81,0,0,0-1.46-3.92,4.51,4.51,0,0,0-3.36-1.55V578h0c2.66,0,4.82-2.46,4.82-5.47h2.39c0,3,2.16,5.47,4.81,5.47h0v2.4h0a4.52,4.52,0,0,0-3.36,1.55,5.85,5.85,0,0,0-1.45,3.92Z" transform="translate(-15.25 -17.78)"/><path class="cls-1" d="M479.35,585.84a5.81,5.81,0,0,0-1.46-3.92,4.51,4.51,0,0,0-3.36-1.55V578h0c2.66,0,4.81-2.46,4.82-5.47h2.39c0,3,2.16,5.47,4.81,5.47h0v2.4h0a4.52,4.52,0,0,0-3.36,1.55,5.85,5.85,0,0,0-1.45,3.92Z" transform="translate(-15.25 -17.78)"/><path class="cls-1" d="M536.75,585.84a5.8,5.8,0,0,0-1.45-3.92,4.51,4.51,0,0,0-3.36-1.55V578h0c2.66,0,4.81-2.46,4.81-5.47h2.4c0,3,2.16,5.47,4.81,5.47h0v2.4h0a4.52,4.52,0,0,0-3.36,1.55,5.85,5.85,0,0,0-1.45,3.92Z" transform="translate(-15.25 -17.78)"/><path class="cls-1" d="M594.16,585.84a5.8,5.8,0,0,0-1.45-3.92,4.51,4.51,0,0,0-3.36-1.55V578h0c2.66,0,4.81-2.46,4.81-5.47h2.4c0,3,2.16,5.47,4.81,5.47h0v2.4h0a4.52,4.52,0,0,0-3.36,1.55,5.85,5.85,0,0,0-1.45,3.92Z" transform="translate(-15.25 -17.78)"/><path class="cls-1" d="M651.57,585.84a5.8,5.8,0,0,0-1.45-3.92,4.51,4.51,0,0,0-3.36-1.55V578h0c2.66,0,4.81-2.46,4.81-5.47H654c0,3,2.16,5.47,4.81,5.47h0v2.4h0a4.52,4.52,0,0,0-3.36,1.55,5.85,5.85,0,0,0-1.45,3.92Z" transform="translate(-15.25 -17.78)"/><path class="cls-1" d="M20.07,585.84a5.81,5.81,0,0,0-1.46-3.92,4.49,4.49,0,0,0-3.36-1.55V578h0c2.66,0,4.82-2.46,4.82-5.47h2.39c0,3,2.16,5.47,4.82,5.47h0v2.4h0a4.49,4.49,0,0,0-3.36,1.55,5.81,5.81,0,0,0-1.46,3.92Z" transform="translate(-15.25 -17.78)"/><path class="cls-1" d="M77.48,585.84A5.81,5.81,0,0,0,76,581.92a4.49,4.49,0,0,0-3.36-1.55V578h0c2.66,0,4.82-2.46,4.82-5.47h2.39c0,3,2.16,5.47,4.82,5.47h0v2.4h0a4.49,4.49,0,0,0-3.36,1.55,5.81,5.81,0,0,0-1.46,3.92Z" transform="translate(-15.25 -17.78)"/><path class="cls-1" d="M134.89,585.84a5.81,5.81,0,0,0-1.46-3.92,4.49,4.49,0,0,0-3.36-1.55V578h0c2.66,0,4.82-2.46,4.82-5.47h2.39c0,3,2.16,5.47,4.82,5.47h0v2.4h0a4.49,4.49,0,0,0-3.36,1.55,5.81,5.81,0,0,0-1.46,3.92Z" transform="translate(-15.25 -17.78)"/><path class="cls-1" d="M192.3,585.84a5.81,5.81,0,0,0-1.46-3.92,4.49,4.49,0,0,0-3.36-1.55V578h0c2.66,0,4.82-2.46,4.82-5.47h2.39c0,3,2.16,5.47,4.82,5.47h0v2.4h0a4.49,4.49,0,0,0-3.35,1.55,5.81,5.81,0,0,0-1.46,3.92Z" transform="translate(-15.25 -17.78)"/><path class="cls-1" d="M249.71,585.84a5.81,5.81,0,0,0-1.46-3.92,4.51,4.51,0,0,0-3.36-1.55V578h0c2.66,0,4.82-2.46,4.82-5.47h2.39c0,3,2.16,5.47,4.82,5.47h0v2.4h0a4.49,4.49,0,0,0-3.35,1.55,5.81,5.81,0,0,0-1.46,3.92Z" transform="translate(-15.25 -17.78)"/><path class="cls-1" d="M307.12,585.84a5.81,5.81,0,0,0-1.46-3.92,4.51,4.51,0,0,0-3.36-1.55V578h0c2.66,0,4.82-2.46,4.82-5.47h2.39c0,3,2.16,5.47,4.81,5.47h0v2.4h0a4.52,4.52,0,0,0-3.36,1.55,5.85,5.85,0,0,0-1.45,3.92Z" transform="translate(-15.25 -17.78)"/><path class="cls-1" d="M709,686.7a5.8,5.8,0,0,0-1.45-3.92,4.52,4.52,0,0,0-3.36-1.56v-2.39h0c2.65,0,4.81-2.46,4.81-5.48h2.4c0,3,2.16,5.48,4.81,5.48h0v2.39h0a4.53,4.53,0,0,0-3.36,1.56,5.85,5.85,0,0,0-1.45,3.92Z" transform="translate(-15.25 -17.78)"/><path class="cls-1" d="M766.39,686.7a5.8,5.8,0,0,0-1.45-3.92,4.52,4.52,0,0,0-3.36-1.56v-2.39h0c2.65,0,4.81-2.46,4.81-5.48h2.4c0,3,2.16,5.48,4.81,5.48h0v2.39h0a4.53,4.53,0,0,0-3.36,1.56,5.85,5.85,0,0,0-1.45,3.92Z" transform="translate(-15.25 -17.78)"/><path class="cls-1" d="M823.8,686.7a5.8,5.8,0,0,0-1.45-3.92,4.52,4.52,0,0,0-3.36-1.56v-2.39h0c2.65,0,4.81-2.46,4.81-5.48h2.4c0,3,2.16,5.48,4.81,5.48h0v2.39h0a4.53,4.53,0,0,0-3.36,1.56,5.85,5.85,0,0,0-1.45,3.92Z" transform="translate(-15.25 -17.78)"/><path class="cls-1" d="M881.21,686.7a5.8,5.8,0,0,0-1.45-3.92,4.52,4.52,0,0,0-3.36-1.56v-2.39h0c2.65,0,4.81-2.46,4.81-5.48h2.4c0,3,2.16,5.48,4.81,5.48h0v2.39h0a4.53,4.53,0,0,0-3.36,1.56,5.85,5.85,0,0,0-1.45,3.92Z" transform="translate(-15.25 -17.78)"/><path class="cls-1" d="M938.62,686.7a5.8,5.8,0,0,0-1.45-3.92,4.53,4.53,0,0,0-3.36-1.56v-2.39h0c2.65,0,4.81-2.46,4.81-5.48H941c0,3,2.16,5.48,4.81,5.48h0v2.39h0a4.53,4.53,0,0,0-3.36,1.56A5.8,5.8,0,0,0,941,686.7Z" transform="translate(-15.25 -17.78)"/><path class="cls-1" d="M996,686.7a5.8,5.8,0,0,0-1.45-3.92,4.53,4.53,0,0,0-3.36-1.56v-2.39h0c2.65,0,4.81-2.46,4.81-5.48h2.4c0,3,2.16,5.48,4.81,5.48h0v2.39h0a4.53,4.53,0,0,0-3.36,1.56,5.8,5.8,0,0,0-1.45,3.92Z" transform="translate(-15.25 -17.78)"/><path class="cls-1" d="M1053.44,686.7a5.8,5.8,0,0,0-1.45-3.92,4.53,4.53,0,0,0-3.36-1.56v-2.39h0c2.65,0,4.81-2.46,4.81-5.48h2.4c0,3,2.16,5.48,4.81,5.48h0v2.39h0a4.53,4.53,0,0,0-3.36,1.56,5.8,5.8,0,0,0-1.45,3.92Z" transform="translate(-15.25 -17.78)"/><path class="cls-1" d="M1110.85,686.7a5.8,5.8,0,0,0-1.45-3.92,4.53,4.53,0,0,0-3.36-1.56v-2.39h0c2.65,0,4.81-2.46,4.81-5.48h2.4c0,3,2.16,5.48,4.81,5.48h0v2.39h0a4.53,4.53,0,0,0-3.36,1.56,5.8,5.8,0,0,0-1.45,3.92Z" transform="translate(-15.25 -17.78)"/><path class="cls-1" d="M1168.26,686.7a5.8,5.8,0,0,0-1.45-3.92,4.53,4.53,0,0,0-3.36-1.56v-2.39h0c2.65,0,4.81-2.46,4.81-5.48h2.4c0,3,2.16,5.48,4.81,5.48h0v2.39h0a4.53,4.53,0,0,0-3.36,1.56,5.8,5.8,0,0,0-1.45,3.92Z" transform="translate(-15.25 -17.78)"/><path class="cls-1" d="M1225.67,686.7a5.8,5.8,0,0,0-1.45-3.92,4.53,4.53,0,0,0-3.36-1.56v-2.39h0c2.65,0,4.81-2.46,4.81-5.48h2.4c0,3,2.16,5.48,4.81,5.48h0v2.39h0a4.53,4.53,0,0,0-3.36,1.56,5.8,5.8,0,0,0-1.45,3.92Z" transform="translate(-15.25 -17.78)"/><path class="cls-1" d="M1283.08,686.7a5.8,5.8,0,0,0-1.45-3.92,4.53,4.53,0,0,0-3.36-1.56v-2.39h0c2.65,0,4.81-2.46,4.81-5.48h2.4c0,3,2.16,5.48,4.81,5.48h0v2.39h0a4.53,4.53,0,0,0-3.36,1.56,5.8,5.8,0,0,0-1.45,3.92Z" transform="translate(-15.25 -17.78)"/><path class="cls-1" d="M1340.49,686.7a5.8,5.8,0,0,0-1.45-3.92,4.53,4.53,0,0,0-3.36-1.56v-2.39h0c2.65,0,4.81-2.46,4.81-5.48h2.4c0,3,2.16,5.48,4.81,5.48h0v2.39h0a4.52,4.52,0,0,0-3.36,1.56,5.8,5.8,0,0,0-1.45,3.92Z" transform="translate(-15.25 -17.78)"/><path class="cls-1" d="M364.53,686.7a5.81,5.81,0,0,0-1.46-3.92,4.52,4.52,0,0,0-3.36-1.56v-2.39h0c2.66,0,4.82-2.46,4.82-5.48h2.39c0,3,2.16,5.48,4.81,5.48h0v2.39h0a4.53,4.53,0,0,0-3.36,1.56,5.85,5.85,0,0,0-1.45,3.92Z" transform="translate(-15.25 -17.78)"/><path class="cls-1" d="M421.94,686.7a5.81,5.81,0,0,0-1.46-3.92,4.52,4.52,0,0,0-3.36-1.56v-2.39h0c2.66,0,4.82-2.46,4.82-5.48h2.39c0,3,2.16,5.48,4.81,5.48h0v2.39h0a4.53,4.53,0,0,0-3.36,1.56,5.85,5.85,0,0,0-1.45,3.92Z" transform="translate(-15.25 -17.78)"/><path class="cls-1" d="M479.35,686.7a5.81,5.81,0,0,0-1.46-3.92,4.52,4.52,0,0,0-3.36-1.56v-2.39h0c2.66,0,4.81-2.46,4.82-5.48h2.39c0,3,2.16,5.48,4.81,5.48h0v2.39h0a4.53,4.53,0,0,0-3.36,1.56,5.85,5.85,0,0,0-1.45,3.92Z" transform="translate(-15.25 -17.78)"/><path class="cls-1" d="M536.75,686.7a5.8,5.8,0,0,0-1.45-3.92,4.52,4.52,0,0,0-3.36-1.56v-2.39h0c2.66,0,4.81-2.46,4.81-5.48h2.4c0,3,2.16,5.48,4.81,5.48h0v2.39h0a4.53,4.53,0,0,0-3.36,1.56,5.85,5.85,0,0,0-1.45,3.92Z" transform="translate(-15.25 -17.78)"/><path class="cls-1" d="M594.16,686.7a5.8,5.8,0,0,0-1.45-3.92,4.52,4.52,0,0,0-3.36-1.56v-2.39h0c2.66,0,4.81-2.46,4.81-5.48h2.4c0,3,2.16,5.48,4.81,5.48h0v2.39h0a4.53,4.53,0,0,0-3.36,1.56,5.85,5.85,0,0,0-1.45,3.92Z" transform="translate(-15.25 -17.78)"/><path class="cls-1" d="M651.57,686.7a5.8,5.8,0,0,0-1.45-3.92,4.52,4.52,0,0,0-3.36-1.56v-2.39h0c2.66,0,4.81-2.46,4.81-5.48H654c0,3,2.16,5.48,4.81,5.48h0v2.39h0a4.53,4.53,0,0,0-3.36,1.56A5.85,5.85,0,0,0,654,686.7Z" transform="translate(-15.25 -17.78)"/><path class="cls-1" d="M20.07,686.7a5.81,5.81,0,0,0-1.46-3.92,4.5,4.5,0,0,0-3.36-1.56v-2.39h0c2.66,0,4.82-2.46,4.82-5.48h2.39c0,3,2.16,5.48,4.82,5.48h0v2.39h0a4.5,4.5,0,0,0-3.36,1.56,5.81,5.81,0,0,0-1.46,3.92Z" transform="translate(-15.25 -17.78)"/><path class="cls-1" d="M77.48,686.7A5.81,5.81,0,0,0,76,682.78a4.5,4.5,0,0,0-3.36-1.56v-2.39h0c2.66,0,4.82-2.46,4.82-5.48h2.39c0,3,2.16,5.48,4.82,5.48h0v2.39h0a4.5,4.5,0,0,0-3.36,1.56,5.81,5.81,0,0,0-1.46,3.92Z" transform="translate(-15.25 -17.78)"/><path class="cls-1" d="M134.89,686.7a5.81,5.81,0,0,0-1.46-3.92,4.5,4.5,0,0,0-3.36-1.56v-2.39h0c2.66,0,4.82-2.46,4.82-5.48h2.39c0,3,2.16,5.48,4.82,5.48h0v2.39h0a4.5,4.5,0,0,0-3.36,1.56,5.81,5.81,0,0,0-1.46,3.92Z" transform="translate(-15.25 -17.78)"/><path class="cls-1" d="M192.3,686.7a5.81,5.81,0,0,0-1.46-3.92,4.5,4.5,0,0,0-3.36-1.56v-2.39h0c2.66,0,4.82-2.46,4.82-5.48h2.39c0,3,2.16,5.48,4.82,5.48h0v2.39h0a4.5,4.5,0,0,0-3.35,1.56,5.81,5.81,0,0,0-1.46,3.92Z" transform="translate(-15.25 -17.78)"/><path class="cls-1" d="M249.71,686.7a5.81,5.81,0,0,0-1.46-3.92,4.52,4.52,0,0,0-3.36-1.56v-2.39h0c2.66,0,4.82-2.46,4.82-5.48h2.39c0,3,2.16,5.48,4.82,5.48h0v2.39h0a4.5,4.5,0,0,0-3.35,1.56,5.81,5.81,0,0,0-1.46,3.92Z" transform="translate(-15.25 -17.78)"/><path class="cls-1" d="M307.12,686.7a5.81,5.81,0,0,0-1.46-3.92,4.52,4.52,0,0,0-3.36-1.56v-2.39h0c2.66,0,4.82-2.46,4.82-5.48h2.39c0,3,2.16,5.48,4.81,5.48h0v2.39h0a4.53,4.53,0,0,0-3.36,1.56,5.85,5.85,0,0,0-1.45,3.92Z" transform="translate(-15.25 -17.78)"/><path class="cls-1" d="M709,737.13a5.8,5.8,0,0,0-1.45-3.92,4.52,4.52,0,0,0-3.36-1.56v-2.39h0c2.65,0,4.81-2.46,4.81-5.48h2.4c0,3,2.16,5.48,4.81,5.48h0v2.39h0a4.53,4.53,0,0,0-3.36,1.56,5.85,5.85,0,0,0-1.45,3.92Z" transform="translate(-15.25 -17.78)"/><path class="cls-1" d="M766.39,737.13a5.8,5.8,0,0,0-1.45-3.92,4.52,4.52,0,0,0-3.36-1.56v-2.39h0c2.65,0,4.81-2.46,4.81-5.48h2.4c0,3,2.16,5.48,4.81,5.48h0v2.39h0a4.53,4.53,0,0,0-3.36,1.56,5.85,5.85,0,0,0-1.45,3.92Z" transform="translate(-15.25 -17.78)"/><path class="cls-1" d="M823.8,737.13a5.8,5.8,0,0,0-1.45-3.92,4.52,4.52,0,0,0-3.36-1.56v-2.39h0c2.65,0,4.81-2.46,4.81-5.48h2.4c0,3,2.16,5.48,4.81,5.48h0v2.39h0a4.53,4.53,0,0,0-3.36,1.56,5.85,5.85,0,0,0-1.45,3.92Z" transform="translate(-15.25 -17.78)"/><path class="cls-1" d="M881.21,737.13a5.8,5.8,0,0,0-1.45-3.92,4.52,4.52,0,0,0-3.36-1.56v-2.39h0c2.65,0,4.81-2.46,4.81-5.48h2.4c0,3,2.16,5.48,4.81,5.48h0v2.39h0a4.53,4.53,0,0,0-3.36,1.56,5.85,5.85,0,0,0-1.45,3.92Z" transform="translate(-15.25 -17.78)"/><path class="cls-1" d="M938.62,737.13a5.8,5.8,0,0,0-1.45-3.92,4.53,4.53,0,0,0-3.36-1.56v-2.39h0c2.65,0,4.81-2.46,4.81-5.48H941c0,3,2.16,5.48,4.81,5.48h0v2.39h0a4.53,4.53,0,0,0-3.36,1.56,5.8,5.8,0,0,0-1.45,3.92Z" transform="translate(-15.25 -17.78)"/><path class="cls-1" d="M996,737.13a5.8,5.8,0,0,0-1.45-3.92,4.53,4.53,0,0,0-3.36-1.56v-2.39h0c2.65,0,4.81-2.46,4.81-5.48h2.4c0,3,2.16,5.48,4.81,5.48h0v2.39h0a4.53,4.53,0,0,0-3.36,1.56,5.8,5.8,0,0,0-1.45,3.92Z" transform="translate(-15.25 -17.78)"/><path class="cls-1" d="M1053.44,737.13a5.8,5.8,0,0,0-1.45-3.92,4.53,4.53,0,0,0-3.36-1.56v-2.39h0c2.65,0,4.81-2.46,4.81-5.48h2.4c0,3,2.16,5.48,4.81,5.48h0v2.39h0a4.53,4.53,0,0,0-3.36,1.56,5.8,5.8,0,0,0-1.45,3.92Z" transform="translate(-15.25 -17.78)"/><path class="cls-1" d="M1110.85,737.13a5.8,5.8,0,0,0-1.45-3.92,4.53,4.53,0,0,0-3.36-1.56v-2.39h0c2.65,0,4.81-2.46,4.81-5.48h2.4c0,3,2.16,5.48,4.81,5.48h0v2.39h0a4.53,4.53,0,0,0-3.36,1.56,5.8,5.8,0,0,0-1.45,3.92Z" transform="translate(-15.25 -17.78)"/><path class="cls-1" d="M1168.26,737.13a5.8,5.8,0,0,0-1.45-3.92,4.53,4.53,0,0,0-3.36-1.56v-2.39h0c2.65,0,4.81-2.46,4.81-5.48h2.4c0,3,2.16,5.48,4.81,5.48h0v2.39h0a4.53,4.53,0,0,0-3.36,1.56,5.8,5.8,0,0,0-1.45,3.92Z" transform="translate(-15.25 -17.78)"/><path class="cls-1" d="M1225.67,737.13a5.8,5.8,0,0,0-1.45-3.92,4.53,4.53,0,0,0-3.36-1.56v-2.39h0c2.65,0,4.81-2.46,4.81-5.48h2.4c0,3,2.16,5.48,4.81,5.48h0v2.39h0a4.53,4.53,0,0,0-3.36,1.56,5.8,5.8,0,0,0-1.45,3.92Z" transform="translate(-15.25 -17.78)"/><path class="cls-1" d="M1283.08,737.13a5.8,5.8,0,0,0-1.45-3.92,4.53,4.53,0,0,0-3.36-1.56v-2.39h0c2.65,0,4.81-2.46,4.81-5.48h2.4c0,3,2.16,5.48,4.81,5.48h0v2.39h0a4.53,4.53,0,0,0-3.36,1.56,5.8,5.8,0,0,0-1.45,3.92Z" transform="translate(-15.25 -17.78)"/><path class="cls-1" d="M1340.49,737.13a5.8,5.8,0,0,0-1.45-3.92,4.53,4.53,0,0,0-3.36-1.56v-2.39h0c2.65,0,4.81-2.46,4.81-5.48h2.4c0,3,2.16,5.48,4.81,5.48h0v2.39h0a4.52,4.52,0,0,0-3.36,1.56,5.8,5.8,0,0,0-1.45,3.92Z" transform="translate(-15.25 -17.78)"/><path class="cls-1" d="M364.53,737.13a5.81,5.81,0,0,0-1.46-3.92,4.52,4.52,0,0,0-3.36-1.56v-2.39h0c2.66,0,4.82-2.46,4.82-5.48h2.39c0,3,2.16,5.48,4.81,5.48h0v2.39h0a4.53,4.53,0,0,0-3.36,1.56,5.85,5.85,0,0,0-1.45,3.92Z" transform="translate(-15.25 -17.78)"/><path class="cls-1" d="M421.94,737.13a5.81,5.81,0,0,0-1.46-3.92,4.52,4.52,0,0,0-3.36-1.56v-2.39h0c2.66,0,4.82-2.46,4.82-5.48h2.39c0,3,2.16,5.48,4.81,5.48h0v2.39h0a4.53,4.53,0,0,0-3.36,1.56,5.85,5.85,0,0,0-1.45,3.92Z" transform="translate(-15.25 -17.78)"/><path class="cls-1" d="M479.35,737.13a5.81,5.81,0,0,0-1.46-3.92,4.52,4.52,0,0,0-3.36-1.56v-2.39h0c2.66,0,4.81-2.46,4.82-5.48h2.39c0,3,2.16,5.48,4.81,5.48h0v2.39h0a4.53,4.53,0,0,0-3.36,1.56,5.85,5.85,0,0,0-1.45,3.92Z" transform="translate(-15.25 -17.78)"/><path class="cls-1" d="M536.75,737.13a5.8,5.8,0,0,0-1.45-3.92,4.52,4.52,0,0,0-3.36-1.56v-2.39h0c2.66,0,4.81-2.46,4.81-5.48h2.4c0,3,2.16,5.48,4.81,5.48h0v2.39h0a4.53,4.53,0,0,0-3.36,1.56,5.85,5.85,0,0,0-1.45,3.92Z" transform="translate(-15.25 -17.78)"/><path class="cls-1" d="M594.16,737.13a5.8,5.8,0,0,0-1.45-3.92,4.52,4.52,0,0,0-3.36-1.56v-2.39h0c2.66,0,4.81-2.46,4.81-5.48h2.4c0,3,2.16,5.48,4.81,5.48h0v2.39h0a4.53,4.53,0,0,0-3.36,1.56,5.85,5.85,0,0,0-1.45,3.92Z" transform="translate(-15.25 -17.78)"/><path class="cls-1" d="M651.57,737.13a5.8,5.8,0,0,0-1.45-3.92,4.52,4.52,0,0,0-3.36-1.56v-2.39h0c2.66,0,4.81-2.46,4.81-5.48H654c0,3,2.16,5.48,4.81,5.48h0v2.39h0a4.53,4.53,0,0,0-3.36,1.56,5.85,5.85,0,0,0-1.45,3.92Z" transform="translate(-15.25 -17.78)"/><path class="cls-1" d="M20.07,737.13a5.81,5.81,0,0,0-1.46-3.92,4.5,4.5,0,0,0-3.36-1.56v-2.39h0c2.66,0,4.82-2.46,4.82-5.48h2.39c0,3,2.16,5.48,4.82,5.48h0v2.39h0a4.5,4.5,0,0,0-3.36,1.56,5.81,5.81,0,0,0-1.46,3.92Z" transform="translate(-15.25 -17.78)"/><path class="cls-1" d="M77.48,737.13A5.81,5.81,0,0,0,76,733.21a4.5,4.5,0,0,0-3.36-1.56v-2.39h0c2.66,0,4.82-2.46,4.82-5.48h2.39c0,3,2.16,5.48,4.82,5.48h0v2.39h0a4.5,4.5,0,0,0-3.36,1.56,5.81,5.81,0,0,0-1.46,3.92Z" transform="translate(-15.25 -17.78)"/><path class="cls-1" d="M134.89,737.13a5.81,5.81,0,0,0-1.46-3.92,4.5,4.5,0,0,0-3.36-1.56v-2.39h0c2.66,0,4.82-2.46,4.82-5.48h2.39c0,3,2.16,5.48,4.82,5.48h0v2.39h0a4.5,4.5,0,0,0-3.36,1.56,5.81,5.81,0,0,0-1.46,3.92Z" transform="translate(-15.25 -17.78)"/><path class="cls-1" d="M192.3,737.13a5.81,5.81,0,0,0-1.46-3.92,4.5,4.5,0,0,0-3.36-1.56v-2.39h0c2.66,0,4.82-2.46,4.82-5.48h2.39c0,3,2.16,5.48,4.82,5.48h0v2.39h0a4.5,4.5,0,0,0-3.35,1.56,5.81,5.81,0,0,0-1.46,3.92Z" transform="translate(-15.25 -17.78)"/><path class="cls-1" d="M249.71,737.13a5.81,5.81,0,0,0-1.46-3.92,4.52,4.52,0,0,0-3.36-1.56v-2.39h0c2.66,0,4.82-2.46,4.82-5.48h2.39c0,3,2.16,5.48,4.82,5.48h0v2.39h0a4.5,4.5,0,0,0-3.35,1.56,5.81,5.81,0,0,0-1.46,3.92Z" transform="translate(-15.25 -17.78)"/><path class="cls-1" d="M307.12,737.13a5.81,5.81,0,0,0-1.46-3.92,4.52,4.52,0,0,0-3.36-1.56v-2.39h0c2.66,0,4.82-2.46,4.82-5.48h2.39c0,3,2.16,5.48,4.81,5.48h0v2.39h0a4.53,4.53,0,0,0-3.36,1.56,5.85,5.85,0,0,0-1.45,3.92Z" transform="translate(-15.25 -17.78)"/><path class="cls-1" d="M709,636.27a5.8,5.8,0,0,0-1.45-3.92,4.52,4.52,0,0,0-3.36-1.56V628.4h0c2.65,0,4.81-2.46,4.81-5.47h2.4c0,3,2.16,5.48,4.81,5.48h0v2.39h0a4.53,4.53,0,0,0-3.36,1.56,5.85,5.85,0,0,0-1.45,3.92Z" transform="translate(-15.25 -17.78)"/><path class="cls-1" d="M766.39,636.27a5.8,5.8,0,0,0-1.45-3.92,4.52,4.52,0,0,0-3.36-1.56V628.4h0c2.65,0,4.81-2.46,4.81-5.47h2.4c0,3,2.16,5.48,4.81,5.48h0v2.39h0a4.53,4.53,0,0,0-3.36,1.56,5.85,5.85,0,0,0-1.45,3.92Z" transform="translate(-15.25 -17.78)"/><path class="cls-1" d="M823.8,636.27a5.8,5.8,0,0,0-1.45-3.92,4.52,4.52,0,0,0-3.36-1.56V628.4h0c2.65,0,4.81-2.46,4.81-5.47h2.4c0,3,2.16,5.48,4.81,5.48h0v2.39h0a4.53,4.53,0,0,0-3.36,1.56,5.85,5.85,0,0,0-1.45,3.92Z" transform="translate(-15.25 -17.78)"/><path class="cls-1" d="M881.21,636.27a5.8,5.8,0,0,0-1.45-3.92,4.52,4.52,0,0,0-3.36-1.56V628.4h0c2.65,0,4.81-2.46,4.81-5.47h2.4c0,3,2.16,5.48,4.81,5.48h0v2.39h0a4.53,4.53,0,0,0-3.36,1.56,5.85,5.85,0,0,0-1.45,3.92Z" transform="translate(-15.25 -17.78)"/><path class="cls-1" d="M938.62,636.27a5.8,5.8,0,0,0-1.45-3.92,4.53,4.53,0,0,0-3.36-1.56V628.4h0c2.65,0,4.81-2.46,4.81-5.47H941c0,3,2.16,5.48,4.81,5.48h0v2.39h0a4.53,4.53,0,0,0-3.36,1.56,5.8,5.8,0,0,0-1.45,3.92Z" transform="translate(-15.25 -17.78)"/><path class="cls-1" d="M996,636.27a5.8,5.8,0,0,0-1.45-3.92,4.53,4.53,0,0,0-3.36-1.56V628.4h0c2.65,0,4.81-2.46,4.81-5.47h2.4c0,3,2.16,5.48,4.81,5.48h0v2.39h0a4.53,4.53,0,0,0-3.36,1.56,5.8,5.8,0,0,0-1.45,3.92Z" transform="translate(-15.25 -17.78)"/><path class="cls-1" d="M1053.44,636.27a5.8,5.8,0,0,0-1.45-3.92,4.53,4.53,0,0,0-3.36-1.56V628.4h0c2.65,0,4.81-2.46,4.81-5.47h2.4c0,3,2.16,5.48,4.81,5.48h0v2.39h0a4.53,4.53,0,0,0-3.36,1.56,5.8,5.8,0,0,0-1.45,3.92Z" transform="translate(-15.25 -17.78)"/><path class="cls-1" d="M1110.85,636.27a5.8,5.8,0,0,0-1.45-3.92,4.53,4.53,0,0,0-3.36-1.56V628.4h0c2.65,0,4.81-2.46,4.81-5.47h2.4c0,3,2.16,5.48,4.81,5.48h0v2.39h0a4.53,4.53,0,0,0-3.36,1.56,5.8,5.8,0,0,0-1.45,3.92Z" transform="translate(-15.25 -17.78)"/><path class="cls-1" d="M1168.26,636.27a5.8,5.8,0,0,0-1.45-3.92,4.53,4.53,0,0,0-3.36-1.56V628.4h0c2.65,0,4.81-2.46,4.81-5.47h2.4c0,3,2.16,5.48,4.81,5.48h0v2.39h0a4.53,4.53,0,0,0-3.36,1.56,5.8,5.8,0,0,0-1.45,3.92Z" transform="translate(-15.25 -17.78)"/><path class="cls-1" d="M1225.67,636.27a5.8,5.8,0,0,0-1.45-3.92,4.53,4.53,0,0,0-3.36-1.56V628.4h0c2.65,0,4.81-2.46,4.81-5.47h2.4c0,3,2.16,5.48,4.81,5.48h0v2.39h0a4.53,4.53,0,0,0-3.36,1.56,5.8,5.8,0,0,0-1.45,3.92Z" transform="translate(-15.25 -17.78)"/><path class="cls-1" d="M1283.08,636.27a5.8,5.8,0,0,0-1.45-3.92,4.53,4.53,0,0,0-3.36-1.56V628.4h0c2.65,0,4.81-2.46,4.81-5.47h2.4c0,3,2.16,5.48,4.81,5.48h0v2.39h0a4.53,4.53,0,0,0-3.36,1.56,5.8,5.8,0,0,0-1.45,3.92Z" transform="translate(-15.25 -17.78)"/><path class="cls-1" d="M1340.49,636.27a5.8,5.8,0,0,0-1.45-3.92,4.53,4.53,0,0,0-3.36-1.56V628.4h0c2.65,0,4.81-2.46,4.81-5.47h2.4c0,3,2.16,5.48,4.81,5.48h0v2.39h0a4.52,4.52,0,0,0-3.36,1.56,5.8,5.8,0,0,0-1.45,3.92Z" transform="translate(-15.25 -17.78)"/><path class="cls-1" d="M364.53,636.27a5.81,5.81,0,0,0-1.46-3.92,4.52,4.52,0,0,0-3.36-1.56V628.4h0c2.66,0,4.82-2.46,4.82-5.47h2.39c0,3,2.16,5.48,4.81,5.48h0v2.39h0a4.53,4.53,0,0,0-3.36,1.56,5.85,5.85,0,0,0-1.45,3.92Z" transform="translate(-15.25 -17.78)"/><path class="cls-1" d="M421.94,636.27a5.81,5.81,0,0,0-1.46-3.92,4.52,4.52,0,0,0-3.36-1.56V628.4h0c2.66,0,4.82-2.46,4.82-5.47h2.39c0,3,2.16,5.48,4.81,5.48h0v2.39h0a4.53,4.53,0,0,0-3.36,1.56,5.85,5.85,0,0,0-1.45,3.92Z" transform="translate(-15.25 -17.78)"/><path class="cls-1" d="M479.35,636.27a5.81,5.81,0,0,0-1.46-3.92,4.52,4.52,0,0,0-3.36-1.56V628.4h0c2.66,0,4.81-2.46,4.82-5.47h2.39c0,3,2.16,5.48,4.81,5.48h0v2.39h0a4.53,4.53,0,0,0-3.36,1.56,5.85,5.85,0,0,0-1.45,3.92Z" transform="translate(-15.25 -17.78)"/><path class="cls-1" d="M536.75,636.27a5.8,5.8,0,0,0-1.45-3.92,4.52,4.52,0,0,0-3.36-1.56V628.4h0c2.66,0,4.81-2.46,4.81-5.47h2.4c0,3,2.16,5.48,4.81,5.48h0v2.39h0a4.53,4.53,0,0,0-3.36,1.56,5.85,5.85,0,0,0-1.45,3.92Z" transform="translate(-15.25 -17.78)"/><path class="cls-1" d="M594.16,636.27a5.8,5.8,0,0,0-1.45-3.92,4.52,4.52,0,0,0-3.36-1.56V628.4h0c2.66,0,4.81-2.46,4.81-5.47h2.4c0,3,2.16,5.48,4.81,5.48h0v2.39h0a4.53,4.53,0,0,0-3.36,1.56,5.85,5.85,0,0,0-1.45,3.92Z" transform="translate(-15.25 -17.78)"/><path class="cls-1" d="M651.57,636.27a5.8,5.8,0,0,0-1.45-3.92,4.52,4.52,0,0,0-3.36-1.56V628.4h0c2.66,0,4.81-2.46,4.81-5.47H654c0,3,2.16,5.48,4.81,5.48h0v2.39h0a4.53,4.53,0,0,0-3.36,1.56,5.85,5.85,0,0,0-1.45,3.92Z" transform="translate(-15.25 -17.78)"/><path class="cls-1" d="M20.07,636.27a5.81,5.81,0,0,0-1.46-3.92,4.5,4.5,0,0,0-3.36-1.56V628.4h0c2.66,0,4.82-2.46,4.82-5.47h2.39c0,3,2.16,5.48,4.82,5.48h0v2.39h0a4.5,4.5,0,0,0-3.36,1.56,5.81,5.81,0,0,0-1.46,3.92Z" transform="translate(-15.25 -17.78)"/><path class="cls-1" d="M77.48,636.27A5.81,5.81,0,0,0,76,632.35a4.5,4.5,0,0,0-3.36-1.56V628.4h0c2.66,0,4.82-2.46,4.82-5.47h2.39c0,3,2.16,5.48,4.82,5.48h0v2.39h0a4.5,4.5,0,0,0-3.36,1.56,5.81,5.81,0,0,0-1.46,3.92Z" transform="translate(-15.25 -17.78)"/><path class="cls-1" d="M134.89,636.27a5.81,5.81,0,0,0-1.46-3.92,4.5,4.5,0,0,0-3.36-1.56V628.4h0c2.66,0,4.82-2.46,4.82-5.47h2.39c0,3,2.16,5.48,4.82,5.48h0v2.39h0a4.5,4.5,0,0,0-3.36,1.56,5.81,5.81,0,0,0-1.46,3.92Z" transform="translate(-15.25 -17.78)"/><path class="cls-1" d="M192.3,636.27a5.81,5.81,0,0,0-1.46-3.92,4.5,4.5,0,0,0-3.36-1.56V628.4h0c2.66,0,4.82-2.46,4.82-5.47h2.39c0,3,2.16,5.48,4.82,5.48h0v2.39h0a4.5,4.5,0,0,0-3.35,1.56,5.81,5.81,0,0,0-1.46,3.92Z" transform="translate(-15.25 -17.78)"/><path class="cls-1" d="M249.71,636.27a5.81,5.81,0,0,0-1.46-3.92,4.52,4.52,0,0,0-3.36-1.56V628.4h0c2.66,0,4.82-2.46,4.82-5.47h2.39c0,3,2.16,5.48,4.82,5.48h0v2.39h0a4.5,4.5,0,0,0-3.35,1.56,5.81,5.81,0,0,0-1.46,3.92Z" transform="translate(-15.25 -17.78)"/><path class="cls-1" d="M307.12,636.27a5.81,5.81,0,0,0-1.46-3.92,4.52,4.52,0,0,0-3.36-1.56V628.4h0c2.66,0,4.82-2.46,4.82-5.47h2.39c0,3,2.16,5.48,4.81,5.48h0v2.39h0a4.53,4.53,0,0,0-3.36,1.56,5.85,5.85,0,0,0-1.45,3.92Z" transform="translate(-15.25 -17.78)"/></svg>