<svg id="Layer_1" data-name="Layer 1" xmlns="http://www.w3.org/2000/svg" viewBox="0 0 780.55 52.3"><defs><style>.cls-1{fill:#929196;}</style></defs><path class="cls-1" d="M21.82,484.27a19.6,19.6,0,0,1,5.81-14.48A20.16,20.16,0,0,1,42.47,464a23.79,23.79,0,0,1,8,1.4,18.42,18.42,0,0,1,6.71,4.16l-4.46,7.27A16.54,16.54,0,0,0,48.11,474a13.34,13.34,0,0,0-5.2-1.13q-5.5,0-8.32,3.27a11.83,11.83,0,0,0-2.8,8,12.69,12.69,0,0,0,2.89,8.31c1.92,2.35,4.67,3.53,8.23,3.53q5.61,0,10.46-4.85l5,7a21.18,21.18,0,0,1-15.85,6.61q-9.36,0-15-5.76T21.82,484.27Z" transform="translate(-21.82 -462.74)"/><path class="cls-1" d="M67.41,500.59a13.54,13.54,0,0,1-4.63-10.65,13.81,13.81,0,0,1,4.63-10.74A16.39,16.39,0,0,1,78.8,475a16.61,16.61,0,0,1,11.48,4.16,13.77,13.77,0,0,1,4.65,10.76,13.56,13.56,0,0,1-4.62,10.65,16.6,16.6,0,0,1-11.45,4.11A16.6,16.6,0,0,1,67.41,500.59Zm5-10.65a6.7,6.7,0,0,0,1.87,5,6.52,6.52,0,0,0,9.14,0,6.74,6.74,0,0,0,1.87-5,7,7,0,0,0-1.87-5.06,6.38,6.38,0,0,0-9.14,0A6.93,6.93,0,0,0,72.42,489.94Z" transform="translate(-21.82 -462.74)"/><path class="cls-1" d="M102.48,504V475.68h9.13v2.48l-.11,1.76h.11a9.78,9.78,0,0,1,9-4.9q10.19,0,10.19,10.63V504H121.3V487.41q0-3.75-3.13-3.75a5.35,5.35,0,0,0-4.6,2.15,8.88,8.88,0,0,0-1.57,5.4V504Z" transform="translate(-21.82 -462.74)"/><path class="cls-1" d="M138.1,489.83a14.43,14.43,0,0,1,4.26-10.43Q146.64,475,153.9,475a18.82,18.82,0,0,1,6.24,1.07,12.27,12.27,0,0,1,5,3.22l-4,6.39A9.34,9.34,0,0,0,154.5,483a6.31,6.31,0,0,0-5,2,6.94,6.94,0,0,0-1.79,4.76,7.23,7.23,0,0,0,1.87,4.93,6.62,6.62,0,0,0,5.23,2.12q3.79,0,7.76-3.42l3.47,6.67a14.87,14.87,0,0,1-5.36,3.41,18.85,18.85,0,0,1-6.8,1.27q-7.28,0-11.54-4.35A14.49,14.49,0,0,1,138.1,489.83Z" transform="translate(-21.82 -462.74)"/><path class="cls-1" d="M170.69,489.83a14.74,14.74,0,0,1,4-10.6q4-4.22,10.73-4.21,6.12,0,9.61,3.83a14.07,14.07,0,0,1,3.49,9.88,28.51,28.51,0,0,1-.22,3H180.43a5.77,5.77,0,0,0,2.34,3.77,7.2,7.2,0,0,0,4.27,1.3c2.35,0,5-1,7.82-2.87l3.52,6.67a16.59,16.59,0,0,1-5.53,3,20.43,20.43,0,0,1-6.58,1.11q-7.22,0-11.4-4.41A14.67,14.67,0,0,1,170.69,489.83Zm10-3.58h8.48a4.43,4.43,0,0,0-1.07-3,3.64,3.64,0,0,0-2.84-1.21C182.8,482,181.28,483.43,180.65,486.25Z" transform="translate(-21.82 -462.74)"/><path class="cls-1" d="M206.25,515V475.68h8.59v1.43l-.11,1.82h.11q2.91-3.92,8.59-3.91a11.59,11.59,0,0,1,9.27,4.1c2.34,2.74,3.5,6.32,3.5,10.77s-1.25,8-3.74,10.73A12.31,12.31,0,0,1,223,504.7a10.72,10.72,0,0,1-7.21-2.7h-.11a23.37,23.37,0,0,1,.11,2.42V515Zm9.25-25a7.89,7.89,0,0,0,1.46,4.76,4.77,4.77,0,0,0,4.1,2,5,5,0,0,0,4-1.81,7.25,7.25,0,0,0,1.6-5,7.83,7.83,0,0,0-1.54-5.06,4.9,4.9,0,0,0-4-1.93,5.13,5.13,0,0,0-4,1.76A7.54,7.54,0,0,0,215.5,490.05Z" transform="translate(-21.82 -462.74)"/><path class="cls-1" d="M245.5,493.57v-10h-3.63v-7.43h3.91V468H255v8.15H261v7.43H255v8.7q0,3.63,5.06,3.63c.44,0,.87,0,1.27-.05v8.25c-1.43.11-2.29.17-2.59.17a23.68,23.68,0,0,1-2.56-.14,23.22,23.22,0,0,1-2.86-.52,10.25,10.25,0,0,1-2.92-1.16,12.72,12.72,0,0,1-2.45-1.9,7.69,7.69,0,0,1-1.81-2.94A11.64,11.64,0,0,1,245.5,493.57Z" transform="translate(-21.82 -462.74)"/><path class="cls-1" d="M280.74,504l13-39.36h10.5L317.18,504h-9.8l-2.4-8.25H292.83L290.22,504Zm14.53-16H303l-2.17-7.67-1.61-6.76h-.11c-.59,2.87-1.12,5.12-1.6,6.78Z" transform="translate(-21.82 -462.74)"/><path class="cls-1" d="M323.41,504V475.68h9.13v4.79l-.11,1.76h.11a10.41,10.41,0,0,1,3.44-5,8.69,8.69,0,0,1,5.59-2,6.15,6.15,0,0,1,1.1.11v9.36a6.75,6.75,0,0,0-1.92-.17,7.34,7.34,0,0,0-5.84,2.26,9.17,9.17,0,0,0-2,6.27v11Z" transform="translate(-21.82 -462.74)"/><path class="cls-1" d="M351.26,493.57v-10h-3.63v-7.43h3.91V468h9.25v8.15h5.94v7.43h-5.94v8.7c0,2.42,1.68,3.63,5.06,3.63.44,0,.86,0,1.27-.05v8.25c-1.43.11-2.3.17-2.59.17a23.68,23.68,0,0,1-2.56-.14,22.89,22.89,0,0,1-2.86-.52,10.13,10.13,0,0,1-2.92-1.16,12.72,12.72,0,0,1-2.45-1.9,7.71,7.71,0,0,1-1.82-2.94A11.88,11.88,0,0,1,351.26,493.57Z" transform="translate(-21.82 -462.74)"/><path class="cls-1" d="M375,504V475.68h9.52V504Zm.11-31.93v-7.43h9.3v7.43Z" transform="translate(-21.82 -462.74)"/><path class="cls-1" d="M391.51,500.51l4.07-6.22a11.65,11.65,0,0,0,7.71,2.86c1.72,0,2.59-.49,2.59-1.48,0-.55-.46-1-1.38-1.46s-2-.86-3.31-1.3a34.08,34.08,0,0,1-3.88-1.62,9.11,9.11,0,0,1-3.33-2.84,7.28,7.28,0,0,1-1.37-4.46,7.65,7.65,0,0,1,3.33-6.6,14.21,14.21,0,0,1,8.45-2.37,15.58,15.58,0,0,1,10.13,3.25l-3.25,6.61a9.76,9.76,0,0,0-3.28-1.66,12.74,12.74,0,0,0-3.88-.66q-2.64,0-2.64,1.38c0,.44.33.85,1,1.24a11.13,11.13,0,0,0,2.45,1,24.79,24.79,0,0,1,3.19,1.16,22.87,22.87,0,0,1,3.2,1.65,7.5,7.5,0,0,1,3.44,6.41,8.29,8.29,0,0,1-3.17,6.69,13,13,0,0,1-8.5,2.62A16.69,16.69,0,0,1,391.51,500.51Z" transform="translate(-21.82 -462.74)"/><path class="cls-1" d="M424,493.57v-10h-3.64v-7.43h3.91V468h9.25v8.15h5.95v7.43h-5.95v8.7q0,3.63,5.07,3.63c.44,0,.86,0,1.26-.05v8.25c-1.43.11-2.29.17-2.59.17a22,22,0,0,1-5.42-.66,10.18,10.18,0,0,1-2.91-1.16,12.78,12.78,0,0,1-2.46-1.9,7.69,7.69,0,0,1-1.81-2.94A11.88,11.88,0,0,1,424,493.57Z" transform="translate(-21.82 -462.74)"/><path class="cls-1" d="M462.47,506.35l14.09-43.61h7.93L470.4,506.35Z" transform="translate(-21.82 -462.74)"/><path class="cls-1" d="M509.32,504V464.67H519V504Z" transform="translate(-21.82 -462.74)"/><path class="cls-1" d="M528.7,493.57v-28.9h9.52v27.64a5.45,5.45,0,0,0,.53,2.86,2.39,2.39,0,0,0,2.12.77c.47,0,.86,0,1.15-.05v8.25c-1.32.11-2.27.17-2.86.17a17.94,17.94,0,0,1-3.83-.36,10,10,0,0,1-3.25-1.4,6.66,6.66,0,0,1-2.5-3.31A15.63,15.63,0,0,1,528.7,493.57Z" transform="translate(-21.82 -462.74)"/><path class="cls-1" d="M549.23,493.57v-28.9h9.53v27.64a5.47,5.47,0,0,0,.52,2.86,2.4,2.4,0,0,0,2.12.77c.48,0,.86,0,1.16-.05v8.25c-1.32.11-2.28.17-2.86.17a17.87,17.87,0,0,1-3.83-.36,10,10,0,0,1-3.25-1.4,6.61,6.61,0,0,1-2.5-3.31A15.61,15.61,0,0,1,549.23,493.57Z" transform="translate(-21.82 -462.74)"/><path class="cls-1" d="M569.55,494.07V475.68h9.52v16.63q0,3.74,3,3.74a5.08,5.08,0,0,0,4.46-2.23,9.59,9.59,0,0,0,1.54-5.59V475.68h9.53V504h-9.14v-2.47l.11-1.77h-.11a8.41,8.41,0,0,1-3.58,3.58,10.9,10.9,0,0,1-5.29,1.33,10.45,10.45,0,0,1-7.35-2.51Q569.56,499.68,569.55,494.07Z" transform="translate(-21.82 -462.74)"/><path class="cls-1" d="M604.62,500.51l4.07-6.22a11.69,11.69,0,0,0,7.71,2.86c1.72,0,2.59-.49,2.59-1.48,0-.55-.46-1-1.38-1.46s-2-.86-3.3-1.3a32.64,32.64,0,0,1-3.88-1.62,9,9,0,0,1-3.33-2.84,7.28,7.28,0,0,1-1.38-4.46,7.65,7.65,0,0,1,3.33-6.6A14.23,14.23,0,0,1,617.5,475a15.56,15.56,0,0,1,10.13,3.25l-3.25,6.61a9.7,9.7,0,0,0-3.27-1.66,12.79,12.79,0,0,0-3.88-.66c-1.77,0-2.65.46-2.65,1.38,0,.44.33.85,1,1.24a11.13,11.13,0,0,0,2.45,1,24.89,24.89,0,0,1,3.2,1.16,22.74,22.74,0,0,1,3.19,1.65,7.5,7.5,0,0,1,3.44,6.41,8.28,8.28,0,0,1-3.16,6.69,13,13,0,0,1-8.51,2.62A16.71,16.71,0,0,1,604.62,500.51Z" transform="translate(-21.82 -462.74)"/><path class="cls-1" d="M637.1,493.57v-10h-3.63v-7.43h3.91V468h9.24v8.15h6v7.43h-6v8.7q0,3.63,5.07,3.63c.44,0,.86,0,1.27-.05v8.25c-1.44.11-2.3.17-2.59.17a23.54,23.54,0,0,1-2.56-.14,22.89,22.89,0,0,1-2.86-.52,10.13,10.13,0,0,1-2.92-1.16,12.42,12.42,0,0,1-2.45-1.9,7.71,7.71,0,0,1-1.82-2.94A11.88,11.88,0,0,1,637.1,493.57Z" transform="translate(-21.82 -462.74)"/><path class="cls-1" d="M660.83,504V475.68H670v4.79l-.11,1.76H670a10.35,10.35,0,0,1,3.44-5,8.67,8.67,0,0,1,5.59-2,6.24,6.24,0,0,1,1.1.11v9.36a6.83,6.83,0,0,0-1.93-.17,7.36,7.36,0,0,0-5.84,2.26,9.17,9.17,0,0,0-2,6.27v11Z" transform="translate(-21.82 -462.74)"/><path class="cls-1" d="M684.67,496.05a7.58,7.58,0,0,1,1.48-4.68,9.5,9.5,0,0,1,3.94-3,23.49,23.49,0,0,1,5.09-1.51,31.75,31.75,0,0,1,5.51-.47h.82v-.49c0-2.1-1.34-3.14-4-3.14a14.21,14.21,0,0,0-7.81,2.7l-3.31-6.72a17.93,17.93,0,0,1,5.32-2.59,21.59,21.59,0,0,1,6.69-1.1q5.88,0,9.27,3.08a10.9,10.9,0,0,1,3.39,8.48V504h-8.7v-1.7l.11-1.76h-.11a9.46,9.46,0,0,1-3.66,3,10.79,10.79,0,0,1-4.76,1.11,9.27,9.27,0,0,1-6.67-2.48A8.2,8.2,0,0,1,684.67,496.05Zm9.41-.88a2.27,2.27,0,0,0,.72,1.73,2.71,2.71,0,0,0,2,.69,4.43,4.43,0,0,0,3.41-1.59,5,5,0,0,0,1.43-3.42v-.77h-.88a12.58,12.58,0,0,0-4.65.8A2.7,2.7,0,0,0,694.08,495.17Z" transform="translate(-21.82 -462.74)"/><path class="cls-1" d="M721.5,493.57v-10h-3.64v-7.43h3.91V468H731v8.15h6v7.43h-6v8.7q0,3.63,5.07,3.63c.44,0,.86,0,1.26-.05v8.25c-1.43.11-2.29.17-2.59.17a23.35,23.35,0,0,1-2.55-.14,23,23,0,0,1-2.87-.52,10.36,10.36,0,0,1-2.92-1.16,13,13,0,0,1-2.45-1.9,7.69,7.69,0,0,1-1.81-2.94A11.88,11.88,0,0,1,721.5,493.57Z" transform="translate(-21.82 -462.74)"/><path class="cls-1" d="M748,500.59a13.56,13.56,0,0,1-4.62-10.65A13.84,13.84,0,0,1,748,479.2a16.43,16.43,0,0,1,11.4-4.18,16.61,16.61,0,0,1,11.48,4.16,13.77,13.77,0,0,1,4.65,10.76,13.56,13.56,0,0,1-4.62,10.65,18,18,0,0,1-22.91,0Zm5-10.65a6.7,6.7,0,0,0,1.88,5,6.51,6.51,0,0,0,9.13,0,6.7,6.7,0,0,0,1.88-5,6.94,6.94,0,0,0-1.88-5.06,6.36,6.36,0,0,0-9.13,0A6.94,6.94,0,0,0,753,489.94Z" transform="translate(-21.82 -462.74)"/><path class="cls-1" d="M783.1,504V475.68h9.14v4.79l-.11,1.76h.11a10.41,10.41,0,0,1,3.44-5,8.67,8.67,0,0,1,5.59-2,6.24,6.24,0,0,1,1.1.11v9.36a6.79,6.79,0,0,0-1.93-.17,7.34,7.34,0,0,0-5.83,2.26,9.17,9.17,0,0,0-2,6.27v11Z" transform="translate(-21.82 -462.74)"/></svg>