<svg id="Layer_1" data-name="Layer 1" xmlns="http://www.w3.org/2000/svg" viewBox="0 0 524.81 582.51"><defs><style>.cls-1{fill:#f8e03e;}</style></defs><path class="cls-1" d="M358.75,787.32c0-64.85-22.52-125.56-63.41-170.94-39.52-43.86-91.61-68-146.69-68l0-104.59h.06c115.83,0,210.06-107.2,210.07-238.92v0l104.59,0c0,131.76,94.24,239,210.07,239h0V548.38h0c-55,0-107.13,24.14-146.63,68-40.9,45.38-63.41,106.09-63.41,170.94ZM315.65,495.9A324.75,324.75,0,0,1,373,546.36a341.6,341.6,0,0,1,38,51,342.92,342.92,0,0,1,38-51,324.46,324.46,0,0,1,57.39-50.46c-38-26.08-70.59-60.79-95.39-101.6C386.23,435.11,353.66,469.82,315.65,495.9Z" transform="translate(-148.62 -204.81)"/></svg>